%FSLAX26Y26*%
%MOMM*%
%ADD10C,0.400*%
D10*

X-11.95146Y-11.81405D02*D03*
X-11.17041Y-11.81405D02*D03*
X-10.44651Y-11.81405D02*D03*
X-9.74801Y-11.81405D02*D03*
X-8.8359Y-11.81405D02*D03*
X-7.77443Y-11.81405D02*D03*
X-6.80263Y-11.81405D02*D03*
X-5.83082Y-11.81405D02*D03*
X-4.85902Y-11.81405D02*D03*
X-3.88722Y-11.81405D02*D03*
X-2.91541Y-11.81405D02*D03*
X-1.94361Y-11.81405D02*D03*
X-0.9718Y-11.81405D02*D03*
X0Y-11.81405D02*D03*
X0.9718Y-11.81405D02*D03*
X1.94361Y-11.81405D02*D03*
X2.91541Y-11.81405D02*D03*
X3.88722Y-11.81405D02*D03*
X4.85902Y-11.81405D02*D03*
X5.83082Y-11.81405D02*D03*
X6.80263Y-11.81405D02*D03*
X7.77443Y-11.81405D02*D03*
X8.74624Y-11.81405D02*D03*
X9.6205Y-11.81405D02*D03*
X10.2936Y-11.81405D02*D03*
X10.9921Y-11.81405D02*D03*
X11.77315Y-11.81405D02*D03*
X12.38275Y-11.81405D02*D03*
X-12.38275Y-11.38276D02*D03*
X-11.63168Y-11.23772D02*D03*
X-11.03833Y-11.22248D02*D03*
X-10.44499Y-11.2207D02*D03*
X-9.85164Y-11.22959D02*D03*
X-9.2583Y-11.22426D02*D03*
X-8.26033Y-11.42898D02*D03*
X-7.28853Y-11.42898D02*D03*
X-6.31673Y-11.42898D02*D03*
X-5.34492Y-11.42898D02*D03*
X-4.37312Y-11.42898D02*D03*
X-3.40131Y-11.42898D02*D03*
X-2.42951Y-11.42898D02*D03*
X-1.45771Y-11.42898D02*D03*
X-0.4859Y-11.42898D02*D03*
X0.4859Y-11.42898D02*D03*
X1.45771Y-11.42898D02*D03*
X2.42951Y-11.42898D02*D03*
X3.40131Y-11.42898D02*D03*
X4.37312Y-11.42898D02*D03*
X5.34492Y-11.42898D02*D03*
X6.31673Y-11.42898D02*D03*
X7.28853Y-11.42898D02*D03*
X8.26033Y-11.42898D02*D03*
X9.2583Y-11.22426D02*D03*
X9.85164Y-11.22959D02*D03*
X10.44499Y-11.2207D02*D03*
X11.03833Y-11.22248D02*D03*
X11.63168Y-11.23772D02*D03*
X12.22502Y-11.22502D02*D03*
X12.81405Y-11.38276D02*D03*
X-12.81405Y-10.95146D02*D03*
X-11.64438Y-10.64438D02*D03*
X-10.57986Y-10.64285D02*D03*
X-9.55319Y-10.70915D02*D03*
X-8.69798Y-11.02817D02*D03*
X-7.77443Y-11.07059D02*D03*
X-7.28853Y-10.72998D02*D03*
X-6.80263Y-11.07059D02*D03*
X-6.31673Y-10.72998D02*D03*
X-5.83082Y-11.07059D02*D03*
X-5.34492Y-10.72998D02*D03*
X-4.85902Y-11.07059D02*D03*
X-4.37312Y-10.72998D02*D03*
X-3.88722Y-11.07059D02*D03*
X-3.40131Y-10.72998D02*D03*
X-2.91541Y-11.07059D02*D03*
X-2.42951Y-10.72998D02*D03*
X-1.94361Y-11.07059D02*D03*
X-1.45771Y-10.72998D02*D03*
X-0.9718Y-11.07059D02*D03*
X-0.47981Y-10.71524D02*D03*
X0Y-11.07059D02*D03*
X0.47981Y-10.71524D02*D03*
X0.9718Y-11.07059D02*D03*
X1.45771Y-10.72998D02*D03*
X1.94361Y-11.07059D02*D03*
X2.42951Y-10.72998D02*D03*
X2.91541Y-11.07059D02*D03*
X3.40131Y-10.72998D02*D03*
X3.88722Y-11.07059D02*D03*
X4.37312Y-10.72998D02*D03*
X4.85902Y-11.07059D02*D03*
X5.34492Y-10.72998D02*D03*
X5.83082Y-11.07059D02*D03*
X6.31673Y-10.72998D02*D03*
X6.80263Y-11.07059D02*D03*
X7.28853Y-10.72998D02*D03*
X7.77443Y-11.07059D02*D03*
X8.69798Y-11.02817D02*D03*
X9.55319Y-10.70915D02*D03*
X10.57986Y-10.64285D02*D03*
X11.64438Y-10.64438D02*D03*
X12.81405Y-10.77316D02*D03*
X-12.23772Y-10.63168D02*D03*
X-11.16279Y-10.16279D02*D03*
X-10.11276Y-10.23849D02*D03*
X-8.30732Y-10.16838D02*D03*
X-7.31672Y-10.13714D02*D03*
X-6.32612Y-10.13663D02*D03*
X-5.33552Y-10.13663D02*D03*
X-4.38836Y-10.13663D02*D03*
X-3.38607Y-10.13663D02*D03*
X-2.43891Y-10.13663D02*D03*
X-1.44831Y-10.13663D02*D03*
X-0.46279Y-9.99465D02*D03*
X0Y-10.36599D02*D03*
X0.46279Y-9.99465D02*D03*
X1.44831Y-10.13663D02*D03*
X2.43891Y-10.13663D02*D03*
X3.38607Y-10.13663D02*D03*
X4.38836Y-10.13663D02*D03*
X5.33552Y-10.13663D02*D03*
X6.32612Y-10.13663D02*D03*
X7.31672Y-10.13714D02*D03*
X8.30732Y-10.16838D02*D03*
X10.11276Y-10.23849D02*D03*
X11.16279Y-10.16279D02*D03*
X12.23772Y-10.63168D02*D03*
X-12.81405Y-10.17041D02*D03*
X-12.22248Y-10.03833D02*D03*
X-11.64285Y-9.57986D02*D03*
X-9.32002Y-9.747D02*D03*
X-3.88722Y-9.81888D02*D03*
X3.88722Y-9.81888D02*D03*
X9.32002Y-9.747D02*D03*
X11.64285Y-9.57986D02*D03*
X12.22248Y-10.03833D02*D03*
X12.81405Y-9.99211D02*D03*
X-12.81405Y-9.44651D02*D03*
X-12.2207Y-9.44499D02*D03*
X-10.56513Y-9.30173D02*D03*
X-9.7122Y-9.30173D02*D03*
X-8.30732Y-9.45718D02*D03*
X-7.31672Y-9.46328D02*D03*
X-6.32612Y-9.46328D02*D03*
X-5.33552Y-9.46328D02*D03*
X-4.3622Y-9.46328D02*D03*
X-3.88722Y-9.10768D02*D03*
X-3.41224Y-9.46328D02*D03*
X-2.43891Y-9.46328D02*D03*
X-1.44831Y-9.46328D02*D03*
X-0.52502Y-9.40435D02*D03*
X0Y-9.10768D02*D03*
X0.52502Y-9.40435D02*D03*
X1.44831Y-9.46328D02*D03*
X2.43891Y-9.46328D02*D03*
X3.41224Y-9.46328D02*D03*
X3.88722Y-9.10768D02*D03*
X4.3622Y-9.46328D02*D03*
X5.33552Y-9.46328D02*D03*
X6.32612Y-9.46328D02*D03*
X7.31672Y-9.46328D02*D03*
X8.30732Y-9.45718D02*D03*
X9.7122Y-9.30173D02*D03*
X10.56513Y-9.30173D02*D03*
X12.2207Y-9.44499D02*D03*
X12.81405Y-9.29361D02*D03*
X-12.81405Y-8.67918D02*D03*
X-12.24636Y-8.85215D02*D03*
X-8.30732Y-8.76376D02*D03*
X-7.31672Y-8.75208D02*D03*
X-6.32612Y-8.75208D02*D03*
X-5.33552Y-8.75208D02*D03*
X-4.3622Y-8.75208D02*D03*
X-3.41224Y-8.75208D02*D03*
X-2.43891Y-8.75208D02*D03*
X-1.44831Y-8.75208D02*D03*
X-0.47498Y-8.75208D02*D03*
X0.47498Y-8.75208D02*D03*
X1.44831Y-8.75208D02*D03*
X2.43891Y-8.75208D02*D03*
X3.41224Y-8.75208D02*D03*
X4.3622Y-8.75208D02*D03*
X5.33552Y-8.75208D02*D03*
X6.32612Y-8.75208D02*D03*
X7.31672Y-8.75208D02*D03*
X8.30732Y-8.76376D02*D03*
X12.24636Y-8.85215D02*D03*
X12.81405Y-8.62051D02*D03*
X-11.92886Y-8.35076D02*D03*
X-11.25779Y-8.30732D02*D03*
X-10.54659Y-8.30732D02*D03*
X-9.83539Y-8.30732D02*D03*
X-9.12419Y-8.30732D02*D03*
X-8.30732Y-8.17042D02*D03*
X-3.88722Y-8.39648D02*D03*
X0Y-8.39648D02*D03*
X3.88722Y-8.39648D02*D03*
X8.30732Y-8.17042D02*D03*
X9.12419Y-8.30732D02*D03*
X9.83539Y-8.30732D02*D03*
X10.54659Y-8.30732D02*D03*
X11.25779Y-8.30732D02*D03*
X11.92886Y-8.35076D02*D03*
X-12.81405Y-7.81558D02*D03*
X-12.07059Y-7.77443D02*D03*
X-7.31672Y-8.04088D02*D03*
X-6.32612Y-8.04088D02*D03*
X-5.33552Y-8.04088D02*D03*
X-4.3622Y-8.04088D02*D03*
X-3.88722Y-7.68528D02*D03*
X-3.41224Y-8.04088D02*D03*
X-2.43891Y-8.04088D02*D03*
X-1.44831Y-8.04088D02*D03*
X-0.47498Y-8.04088D02*D03*
X0Y-7.68528D02*D03*
X0.47498Y-8.04088D02*D03*
X1.44831Y-8.04088D02*D03*
X2.43891Y-8.04088D02*D03*
X3.41224Y-8.04088D02*D03*
X3.88722Y-7.68528D02*D03*
X4.3622Y-8.04088D02*D03*
X5.33552Y-8.04088D02*D03*
X6.32612Y-8.04088D02*D03*
X7.31672Y-8.04088D02*D03*
X12.07059Y-7.77443D02*D03*
X12.81405Y-7.77443D02*D03*
X-12.42898Y-7.28853D02*D03*
X-11.72997Y-7.28853D02*D03*
X-11.13714Y-7.31672D02*D03*
X-10.46328Y-7.31672D02*D03*
X-9.75208Y-7.31672D02*D03*
X-9.04088Y-7.31672D02*D03*
X-8.32968Y-7.31672D02*D03*
X-7.31672Y-7.33958D02*D03*
X-6.32612Y-7.32968D02*D03*
X-5.33552Y-7.32968D02*D03*
X-4.3622Y-7.32968D02*D03*
X-3.41224Y-7.32968D02*D03*
X-2.43891Y-7.32968D02*D03*
X-1.44831Y-7.32968D02*D03*
X-0.47498Y-7.32968D02*D03*
X0.47498Y-7.32968D02*D03*
X1.44831Y-7.32968D02*D03*
X2.43891Y-7.32968D02*D03*
X3.41224Y-7.32968D02*D03*
X4.3622Y-7.32968D02*D03*
X5.33552Y-7.32968D02*D03*
X6.32612Y-7.32968D02*D03*
X7.31672Y-7.33958D02*D03*
X8.32968Y-7.31672D02*D03*
X9.04088Y-7.31672D02*D03*
X9.75208Y-7.31672D02*D03*
X10.46328Y-7.31672D02*D03*
X11.13714Y-7.31672D02*D03*
X11.72997Y-7.28853D02*D03*
X12.42898Y-7.28853D02*D03*
X-12.81405Y-6.80263D02*D03*
X-12.07059Y-6.80263D02*D03*
X-6.75056Y-6.9149D02*D03*
X-3.88722Y-6.97408D02*D03*
X0Y-6.97408D02*D03*
X3.88722Y-6.97408D02*D03*
X6.75056Y-6.9149D02*D03*
X12.07059Y-6.80263D02*D03*
X12.81405Y-6.80263D02*D03*
X-12.42898Y-6.31673D02*D03*
X-11.72997Y-6.31673D02*D03*
X-11.13663Y-6.32612D02*D03*
X-10.46328Y-6.32612D02*D03*
X-9.75208Y-6.32612D02*D03*
X-9.04088Y-6.32612D02*D03*
X-8.32968Y-6.32612D02*D03*
X-7.61848Y-6.32612D02*D03*
X-6.90728Y-6.32612D02*D03*
X-6.32612Y-6.44601D02*D03*
X-5.33552Y-6.61848D02*D03*
X-4.3622Y-6.61848D02*D03*
X-3.88722Y-6.26288D02*D03*
X-3.41224Y-6.61848D02*D03*
X-2.43891Y-6.61848D02*D03*
X-1.44831Y-6.61848D02*D03*
X-0.47498Y-6.61848D02*D03*
X0Y-6.26288D02*D03*
X0.47498Y-6.61848D02*D03*
X1.44831Y-6.61848D02*D03*
X2.43891Y-6.61848D02*D03*
X3.41224Y-6.61848D02*D03*
X3.88722Y-6.26288D02*D03*
X4.3622Y-6.61848D02*D03*
X5.33552Y-6.61848D02*D03*
X6.32612Y-6.44601D02*D03*
X6.90728Y-6.32612D02*D03*
X7.61848Y-6.32612D02*D03*
X8.32968Y-6.32612D02*D03*
X9.04088Y-6.32612D02*D03*
X9.75208Y-6.32612D02*D03*
X10.46328Y-6.32612D02*D03*
X11.13663Y-6.32612D02*D03*
X11.72997Y-6.31673D02*D03*
X12.42898Y-6.31673D02*D03*
X-12.81405Y-5.83082D02*D03*
X-12.07059Y-5.83082D02*D03*
X-5.33552Y-5.90728D02*D03*
X-4.3622Y-5.90728D02*D03*
X-3.41224Y-5.90728D02*D03*
X-2.43891Y-5.90728D02*D03*
X-1.44831Y-5.90728D02*D03*
X-0.47498Y-5.90728D02*D03*
X0.47498Y-5.90728D02*D03*
X1.44831Y-5.90728D02*D03*
X2.43891Y-5.90728D02*D03*
X3.41224Y-5.90728D02*D03*
X4.3622Y-5.90728D02*D03*
X5.33552Y-5.90728D02*D03*
X12.07059Y-5.83082D02*D03*
X12.81405Y-5.83082D02*D03*
X-12.42898Y-5.34492D02*D03*
X-11.72997Y-5.34492D02*D03*
X-11.13663Y-5.33552D02*D03*
X-10.46328Y-5.33552D02*D03*
X-9.75208Y-5.33552D02*D03*
X-9.04088Y-5.33552D02*D03*
X-8.32968Y-5.33552D02*D03*
X-7.61848Y-5.33552D02*D03*
X-6.90728Y-5.33552D02*D03*
X-6.30479Y-5.33552D02*D03*
X-5.33552Y-5.19608D02*D03*
X-4.3622Y-5.19608D02*D03*
X-3.88722Y-5.55168D02*D03*
X-3.41224Y-5.19608D02*D03*
X-2.43891Y-5.19608D02*D03*
X-1.44831Y-5.19608D02*D03*
X-0.47498Y-5.19608D02*D03*
X0Y-5.55168D02*D03*
X0.47498Y-5.19608D02*D03*
X1.44831Y-5.19608D02*D03*
X2.43891Y-5.19608D02*D03*
X3.41224Y-5.19608D02*D03*
X3.88722Y-5.55168D02*D03*
X4.3622Y-5.19608D02*D03*
X5.33552Y-5.19608D02*D03*
X6.30479Y-5.33552D02*D03*
X6.90728Y-5.33552D02*D03*
X7.61848Y-5.33552D02*D03*
X8.32968Y-5.33552D02*D03*
X9.04088Y-5.33552D02*D03*
X9.75208Y-5.33552D02*D03*
X10.46328Y-5.33552D02*D03*
X11.13663Y-5.33552D02*D03*
X11.72997Y-5.34492D02*D03*
X12.42898Y-5.34492D02*D03*
X-12.81405Y-4.85902D02*D03*
X-12.07059Y-4.85902D02*D03*
X12.07059Y-4.85902D02*D03*
X12.81405Y-4.85902D02*D03*
X-12.42898Y-4.37312D02*D03*
X-11.72997Y-4.37312D02*D03*
X-11.13663Y-4.38836D02*D03*
X-10.46328Y-4.3622D02*D03*
X-9.75208Y-4.3622D02*D03*
X-9.04088Y-4.3622D02*D03*
X-8.32968Y-4.3622D02*D03*
X-7.61848Y-4.3622D02*D03*
X-6.90728Y-4.3622D02*D03*
X-6.19608Y-4.3622D02*D03*
X6.19608Y-4.3622D02*D03*
X6.90728Y-4.3622D02*D03*
X7.61848Y-4.3622D02*D03*
X8.32968Y-4.3622D02*D03*
X9.04088Y-4.3622D02*D03*
X9.75208Y-4.3622D02*D03*
X10.46328Y-4.3622D02*D03*
X11.13663Y-4.38836D02*D03*
X11.72997Y-4.37312D02*D03*
X12.42898Y-4.37312D02*D03*
X-12.81405Y-3.88722D02*D03*
X-12.07059Y-3.88722D02*D03*
X-10.81888Y-3.88722D02*D03*
X-10.10768Y-3.88722D02*D03*
X-9.39648Y-3.88722D02*D03*
X-8.68528Y-3.88722D02*D03*
X-7.97408Y-3.88722D02*D03*
X-7.26288Y-3.88722D02*D03*
X-6.55168Y-3.88722D02*D03*
X-5.30733Y-4.31394D02*D03*
X-4.54914Y-4.31394D02*D03*
X-3.79095Y-4.31394D02*D03*
X-3.03276Y-4.31394D02*D03*
X-2.27457Y-4.31394D02*D03*
X-1.51638Y-4.31394D02*D03*
X-0.75819Y-4.31394D02*D03*
X0Y-4.31394D02*D03*
X0.75819Y-4.31394D02*D03*
X1.51638Y-4.31394D02*D03*
X2.27457Y-4.31394D02*D03*
X3.03276Y-4.31394D02*D03*
X3.79095Y-4.31394D02*D03*
X4.54914Y-4.31394D02*D03*
X5.30733Y-4.31394D02*D03*
X6.55168Y-3.88722D02*D03*
X7.26288Y-3.88722D02*D03*
X7.97408Y-3.88722D02*D03*
X8.68528Y-3.88722D02*D03*
X9.39648Y-3.88722D02*D03*
X10.10768Y-3.88722D02*D03*
X10.81888Y-3.88722D02*D03*
X12.07059Y-3.88722D02*D03*
X12.81405Y-3.88722D02*D03*
X-12.42898Y-3.40131D02*D03*
X-11.72997Y-3.40131D02*D03*
X-11.13663Y-3.38607D02*D03*
X-10.46328Y-3.41224D02*D03*
X-9.75208Y-3.41224D02*D03*
X-9.04088Y-3.41224D02*D03*
X-8.32968Y-3.41224D02*D03*
X-7.61848Y-3.41224D02*D03*
X-6.90728Y-3.41224D02*D03*
X-6.19608Y-3.41224D02*D03*
X-5.30733Y-3.52958D02*D03*
X-4.54914Y-3.52958D02*D03*
X-3.79095Y-3.52958D02*D03*
X-3.03276Y-3.52958D02*D03*
X-2.27457Y-3.52958D02*D03*
X-1.51638Y-3.52958D02*D03*
X-0.75819Y-3.52958D02*D03*
X0Y-3.52958D02*D03*
X0.75819Y-3.52958D02*D03*
X1.51638Y-3.52958D02*D03*
X2.27457Y-3.52958D02*D03*
X3.03276Y-3.52958D02*D03*
X3.79095Y-3.52958D02*D03*
X4.54914Y-3.52958D02*D03*
X5.30733Y-3.52958D02*D03*
X6.19608Y-3.41224D02*D03*
X6.90728Y-3.41224D02*D03*
X7.61848Y-3.41224D02*D03*
X8.32968Y-3.41224D02*D03*
X9.04088Y-3.41224D02*D03*
X9.75208Y-3.41224D02*D03*
X10.46328Y-3.41224D02*D03*
X11.13663Y-3.38607D02*D03*
X11.72997Y-3.40131D02*D03*
X12.42898Y-3.40131D02*D03*
X-12.81405Y-2.91541D02*D03*
X-12.07059Y-2.91541D02*D03*
X12.07059Y-2.91541D02*D03*
X12.81405Y-2.91541D02*D03*
X-12.42898Y-2.42951D02*D03*
X-11.72997Y-2.42951D02*D03*
X-11.13663Y-2.43891D02*D03*
X-10.46328Y-2.43891D02*D03*
X-9.75208Y-2.43891D02*D03*
X-9.04088Y-2.43891D02*D03*
X-8.32968Y-2.43891D02*D03*
X-7.61848Y-2.43891D02*D03*
X-6.90728Y-2.43891D02*D03*
X-6.19608Y-2.43891D02*D03*
X-5.30733Y-2.74523D02*D03*
X-4.54914Y-2.74523D02*D03*
X-3.79095Y-2.74523D02*D03*
X-3.03276Y-2.74523D02*D03*
X-2.27457Y-2.74523D02*D03*
X-1.51638Y-2.74523D02*D03*
X-0.75819Y-2.74523D02*D03*
X0Y-2.74523D02*D03*
X0.75819Y-2.74523D02*D03*
X1.51638Y-2.74523D02*D03*
X2.27457Y-2.74523D02*D03*
X3.03276Y-2.74523D02*D03*
X3.79095Y-2.74523D02*D03*
X4.54914Y-2.74523D02*D03*
X5.30733Y-2.74523D02*D03*
X6.19608Y-2.43891D02*D03*
X6.90728Y-2.43891D02*D03*
X7.61848Y-2.43891D02*D03*
X8.32968Y-2.43891D02*D03*
X9.04088Y-2.43891D02*D03*
X9.75208Y-2.43891D02*D03*
X10.46328Y-2.43891D02*D03*
X11.13663Y-2.43891D02*D03*
X11.72997Y-2.42951D02*D03*
X12.42898Y-2.42951D02*D03*
X-12.81405Y-1.94361D02*D03*
X-12.07059Y-1.94361D02*D03*
X-5.30733Y-1.96088D02*D03*
X-4.54914Y-1.96088D02*D03*
X-3.79095Y-1.96088D02*D03*
X-3.03276Y-1.96088D02*D03*
X-2.27457Y-1.96088D02*D03*
X-1.51638Y-1.96088D02*D03*
X-0.75819Y-1.96088D02*D03*
X0Y-1.96088D02*D03*
X0.75819Y-1.96088D02*D03*
X1.51638Y-1.96088D02*D03*
X2.27457Y-1.96088D02*D03*
X3.03276Y-1.96088D02*D03*
X3.79095Y-1.96088D02*D03*
X4.54914Y-1.96088D02*D03*
X5.30733Y-1.96088D02*D03*
X12.07059Y-1.94361D02*D03*
X12.81405Y-1.94361D02*D03*
X-12.42898Y-1.45771D02*D03*
X-11.72997Y-1.45771D02*D03*
X-11.13663Y-1.44831D02*D03*
X-10.46328Y-1.44831D02*D03*
X-9.75208Y-1.44831D02*D03*
X-9.04088Y-1.44831D02*D03*
X-8.32968Y-1.44831D02*D03*
X-7.61848Y-1.44831D02*D03*
X-6.90728Y-1.44831D02*D03*
X-6.19608Y-1.44831D02*D03*
X6.19608Y-1.44831D02*D03*
X6.90728Y-1.44831D02*D03*
X7.61848Y-1.44831D02*D03*
X8.32968Y-1.44831D02*D03*
X9.04088Y-1.44831D02*D03*
X9.75208Y-1.44831D02*D03*
X10.46328Y-1.44831D02*D03*
X11.13663Y-1.44831D02*D03*
X11.72997Y-1.45771D02*D03*
X12.42898Y-1.45771D02*D03*
X-12.81405Y-0.9718D02*D03*
X-12.07059Y-0.9718D02*D03*
X-5.30733Y-1.17653D02*D03*
X-4.54914Y-1.17653D02*D03*
X-3.79095Y-1.17653D02*D03*
X-3.03276Y-1.17653D02*D03*
X-2.27457Y-1.17653D02*D03*
X-1.51638Y-1.17653D02*D03*
X-0.75819Y-1.17653D02*D03*
X0Y-1.17653D02*D03*
X0.75819Y-1.17653D02*D03*
X1.51638Y-1.17653D02*D03*
X2.27457Y-1.17653D02*D03*
X3.03276Y-1.17653D02*D03*
X3.79095Y-1.17653D02*D03*
X4.54914Y-1.17653D02*D03*
X5.30733Y-1.17653D02*D03*
X12.07059Y-0.9718D02*D03*
X12.81405Y-0.9718D02*D03*
X-12.42898Y-0.4859D02*D03*
X-11.71524Y-0.47981D02*D03*
X-10.99464Y-0.46279D02*D03*
X-10.40435Y-0.52502D02*D03*
X-9.75208Y-0.47498D02*D03*
X-9.04088Y-0.47498D02*D03*
X-8.32968Y-0.47498D02*D03*
X-7.61848Y-0.47498D02*D03*
X-6.90728Y-0.47498D02*D03*
X-6.19608Y-0.47498D02*D03*
X-5.30733Y-0.39218D02*D03*
X-4.54914Y-0.39218D02*D03*
X-3.79095Y-0.39218D02*D03*
X-3.03276Y-0.39218D02*D03*
X-2.27457Y-0.39218D02*D03*
X-1.51638Y-0.39218D02*D03*
X-0.75819Y-0.39218D02*D03*
X0Y-0.39218D02*D03*
X0.75819Y-0.39218D02*D03*
X1.51638Y-0.39218D02*D03*
X2.27457Y-0.39218D02*D03*
X3.03276Y-0.39218D02*D03*
X3.79095Y-0.39218D02*D03*
X4.54914Y-0.39218D02*D03*
X5.30733Y-0.39218D02*D03*
X6.19608Y-0.47498D02*D03*
X6.90728Y-0.47498D02*D03*
X7.61848Y-0.47498D02*D03*
X8.32968Y-0.47498D02*D03*
X9.04088Y-0.47498D02*D03*
X9.75208Y-0.47498D02*D03*
X10.40435Y-0.52502D02*D03*
X10.99464Y-0.46279D02*D03*
X11.71524Y-0.47981D02*D03*
X12.42898Y-0.4859D02*D03*
X-12.81405Y0D02*D03*
X-12.07059Y0D02*D03*
X-11.36599Y0D02*D03*
X-10.10768Y0D02*D03*
X-9.39648Y0D02*D03*
X-8.68528Y0D02*D03*
X-7.97408Y0D02*D03*
X-7.26288Y0D02*D03*
X-6.55168Y0D02*D03*
X6.55168Y0D02*D03*
X7.26288Y0D02*D03*
X7.97408Y0D02*D03*
X8.68528Y0D02*D03*
X9.39648Y0D02*D03*
X10.10768Y0D02*D03*
X11.36599Y0D02*D03*
X12.07059Y0D02*D03*
X12.81405Y0D02*D03*
X-12.42898Y0.4859D02*D03*
X-11.71524Y0.47981D02*D03*
X-10.99464Y0.46279D02*D03*
X-10.40435Y0.52502D02*D03*
X-9.75208Y0.47498D02*D03*
X-9.04088Y0.47498D02*D03*
X-8.32968Y0.47498D02*D03*
X-7.61848Y0.47498D02*D03*
X-6.90728Y0.47498D02*D03*
X-6.19608Y0.47498D02*D03*
X-5.30733Y0.39218D02*D03*
X-4.54914Y0.39218D02*D03*
X-3.79095Y0.39218D02*D03*
X-3.03276Y0.39218D02*D03*
X-2.27457Y0.39218D02*D03*
X-1.51638Y0.39218D02*D03*
X-0.75819Y0.39218D02*D03*
X0Y0.39218D02*D03*
X0.75819Y0.39218D02*D03*
X1.51638Y0.39218D02*D03*
X2.27457Y0.39218D02*D03*
X3.03276Y0.39218D02*D03*
X3.79095Y0.39218D02*D03*
X4.54914Y0.39218D02*D03*
X5.30733Y0.39218D02*D03*
X6.19608Y0.47498D02*D03*
X6.90728Y0.47498D02*D03*
X7.61848Y0.47498D02*D03*
X8.32968Y0.47498D02*D03*
X9.04088Y0.47498D02*D03*
X9.75208Y0.47498D02*D03*
X10.40435Y0.52502D02*D03*
X10.99464Y0.46279D02*D03*
X11.71524Y0.47981D02*D03*
X12.42898Y0.4859D02*D03*
X-12.81405Y0.9718D02*D03*
X-12.07059Y0.9718D02*D03*
X-5.30733Y1.17653D02*D03*
X-4.54914Y1.17653D02*D03*
X-3.79095Y1.17653D02*D03*
X-3.03276Y1.17653D02*D03*
X-2.27457Y1.17653D02*D03*
X-1.51638Y1.17653D02*D03*
X-0.75819Y1.17653D02*D03*
X0Y1.17653D02*D03*
X0.75819Y1.17653D02*D03*
X1.51638Y1.17653D02*D03*
X2.27457Y1.17653D02*D03*
X3.03276Y1.17653D02*D03*
X3.79095Y1.17653D02*D03*
X4.54914Y1.17653D02*D03*
X5.30733Y1.17653D02*D03*
X12.07059Y0.9718D02*D03*
X12.81405Y0.9718D02*D03*
X-12.42898Y1.45771D02*D03*
X-11.72997Y1.45771D02*D03*
X-11.13663Y1.44831D02*D03*
X-10.46328Y1.44831D02*D03*
X-9.75208Y1.44831D02*D03*
X-9.04088Y1.44831D02*D03*
X-8.32968Y1.44831D02*D03*
X-7.61848Y1.44831D02*D03*
X-6.90728Y1.44831D02*D03*
X-6.19608Y1.44831D02*D03*
X6.19608Y1.44831D02*D03*
X6.90728Y1.44831D02*D03*
X7.61848Y1.44831D02*D03*
X8.32968Y1.44831D02*D03*
X9.04088Y1.44831D02*D03*
X9.75208Y1.44831D02*D03*
X10.46328Y1.44831D02*D03*
X11.13663Y1.44831D02*D03*
X11.72997Y1.45771D02*D03*
X12.42898Y1.45771D02*D03*
X-12.81405Y1.94361D02*D03*
X-12.07059Y1.94361D02*D03*
X-5.30733Y1.96088D02*D03*
X-4.54914Y1.96088D02*D03*
X-3.79095Y1.96088D02*D03*
X-3.03276Y1.96088D02*D03*
X-2.27457Y1.96088D02*D03*
X-1.51638Y1.96088D02*D03*
X-0.75819Y1.96088D02*D03*
X0Y1.96088D02*D03*
X0.75819Y1.96088D02*D03*
X1.51638Y1.96088D02*D03*
X2.27457Y1.96088D02*D03*
X3.03276Y1.96088D02*D03*
X3.79095Y1.96088D02*D03*
X4.54914Y1.96088D02*D03*
X5.30733Y1.96088D02*D03*
X12.07059Y1.94361D02*D03*
X12.81405Y1.94361D02*D03*
X-12.42898Y2.42951D02*D03*
X-11.72997Y2.42951D02*D03*
X-11.13663Y2.43891D02*D03*
X-10.46328Y2.43891D02*D03*
X-9.75208Y2.43891D02*D03*
X-9.04088Y2.43891D02*D03*
X-8.32968Y2.43891D02*D03*
X-7.61848Y2.43891D02*D03*
X-6.90728Y2.43891D02*D03*
X-6.19608Y2.43891D02*D03*
X-5.30733Y2.74523D02*D03*
X-4.54914Y2.74523D02*D03*
X-3.79095Y2.74523D02*D03*
X-3.03276Y2.74523D02*D03*
X-2.27457Y2.74523D02*D03*
X-1.51638Y2.74523D02*D03*
X-0.75819Y2.74523D02*D03*
X0Y2.74523D02*D03*
X0.75819Y2.74523D02*D03*
X1.51638Y2.74523D02*D03*
X2.27457Y2.74523D02*D03*
X3.03276Y2.74523D02*D03*
X3.79095Y2.74523D02*D03*
X4.54914Y2.74523D02*D03*
X5.30733Y2.74523D02*D03*
X6.19608Y2.43891D02*D03*
X6.90728Y2.43891D02*D03*
X7.61848Y2.43891D02*D03*
X8.32968Y2.43891D02*D03*
X9.04088Y2.43891D02*D03*
X9.75208Y2.43891D02*D03*
X10.46328Y2.43891D02*D03*
X11.13663Y2.43891D02*D03*
X11.72997Y2.42951D02*D03*
X12.42898Y2.42951D02*D03*
X-12.81405Y2.91541D02*D03*
X-12.07059Y2.91541D02*D03*
X12.07059Y2.91541D02*D03*
X12.81405Y2.91541D02*D03*
X-12.42898Y3.40131D02*D03*
X-11.72997Y3.40131D02*D03*
X-11.13663Y3.38607D02*D03*
X-10.46328Y3.41224D02*D03*
X-9.75208Y3.41224D02*D03*
X-9.04088Y3.41224D02*D03*
X-8.32968Y3.41224D02*D03*
X-7.61848Y3.41224D02*D03*
X-6.90728Y3.41224D02*D03*
X-6.19608Y3.41224D02*D03*
X-5.30733Y3.52958D02*D03*
X-4.54914Y3.52958D02*D03*
X-3.79095Y3.52958D02*D03*
X-3.03276Y3.52958D02*D03*
X-2.27457Y3.52958D02*D03*
X-1.51638Y3.52958D02*D03*
X-0.75819Y3.52958D02*D03*
X0Y3.52958D02*D03*
X0.75819Y3.52958D02*D03*
X1.51638Y3.52958D02*D03*
X2.27457Y3.52958D02*D03*
X3.03276Y3.52958D02*D03*
X3.79095Y3.52958D02*D03*
X4.54914Y3.52958D02*D03*
X5.30733Y3.52958D02*D03*
X6.19608Y3.41224D02*D03*
X6.90728Y3.41224D02*D03*
X7.61848Y3.41224D02*D03*
X8.32968Y3.41224D02*D03*
X9.04088Y3.41224D02*D03*
X9.75208Y3.41224D02*D03*
X10.46328Y3.41224D02*D03*
X11.13663Y3.38607D02*D03*
X11.72997Y3.40131D02*D03*
X12.42898Y3.40131D02*D03*
X-12.81405Y3.88722D02*D03*
X-12.07059Y3.88722D02*D03*
X-10.81888Y3.88722D02*D03*
X-10.10768Y3.88722D02*D03*
X-9.39648Y3.88722D02*D03*
X-8.68528Y3.88722D02*D03*
X-7.97408Y3.88722D02*D03*
X-7.26288Y3.88722D02*D03*
X-6.55168Y3.88722D02*D03*
X-5.30733Y4.31394D02*D03*
X-4.54914Y4.31394D02*D03*
X-3.79095Y4.31394D02*D03*
X-3.03276Y4.31394D02*D03*
X-2.27457Y4.31394D02*D03*
X-1.51638Y4.31394D02*D03*
X-0.75819Y4.31394D02*D03*
X0Y4.31394D02*D03*
X0.75819Y4.31394D02*D03*
X1.51638Y4.31394D02*D03*
X2.27457Y4.31394D02*D03*
X3.03276Y4.31394D02*D03*
X3.79095Y4.31394D02*D03*
X4.54914Y4.31394D02*D03*
X5.30733Y4.31394D02*D03*
X6.55168Y3.88722D02*D03*
X7.26288Y3.88722D02*D03*
X7.97408Y3.88722D02*D03*
X8.68528Y3.88722D02*D03*
X9.39648Y3.88722D02*D03*
X10.10768Y3.88722D02*D03*
X10.81888Y3.88722D02*D03*
X12.07059Y3.88722D02*D03*
X12.81405Y3.88722D02*D03*
X-12.42898Y4.37312D02*D03*
X-11.72997Y4.37312D02*D03*
X-11.13663Y4.38836D02*D03*
X-10.46328Y4.3622D02*D03*
X-9.75208Y4.3622D02*D03*
X-9.04088Y4.3622D02*D03*
X-8.32968Y4.3622D02*D03*
X-7.61848Y4.3622D02*D03*
X-6.90728Y4.3622D02*D03*
X-6.19608Y4.3622D02*D03*
X6.19608Y4.3622D02*D03*
X6.90728Y4.3622D02*D03*
X7.61848Y4.3622D02*D03*
X8.32968Y4.3622D02*D03*
X9.04088Y4.3622D02*D03*
X9.75208Y4.3622D02*D03*
X10.46328Y4.3622D02*D03*
X11.13663Y4.38836D02*D03*
X11.72997Y4.37312D02*D03*
X12.42898Y4.37312D02*D03*
X-12.81405Y4.85902D02*D03*
X-12.07059Y4.85902D02*D03*
X12.07059Y4.85902D02*D03*
X12.81405Y4.85902D02*D03*
X-12.42898Y5.34492D02*D03*
X-11.72997Y5.34492D02*D03*
X-11.13663Y5.33552D02*D03*
X-10.46328Y5.33552D02*D03*
X-9.75208Y5.33552D02*D03*
X-9.04088Y5.33552D02*D03*
X-8.32968Y5.33552D02*D03*
X-7.61848Y5.33552D02*D03*
X-6.90728Y5.33552D02*D03*
X-6.30479Y5.33552D02*D03*
X-5.33552Y5.19608D02*D03*
X-4.3622Y5.19608D02*D03*
X-3.88722Y5.55168D02*D03*
X-3.41224Y5.19608D02*D03*
X-2.43891Y5.19608D02*D03*
X-1.44831Y5.19608D02*D03*
X-0.47498Y5.19608D02*D03*
X0Y5.55168D02*D03*
X0.47498Y5.19608D02*D03*
X1.44831Y5.19608D02*D03*
X2.43891Y5.19608D02*D03*
X3.41224Y5.19608D02*D03*
X3.88722Y5.55168D02*D03*
X4.3622Y5.19608D02*D03*
X5.33552Y5.19608D02*D03*
X6.30479Y5.33552D02*D03*
X6.90728Y5.33552D02*D03*
X7.61848Y5.33552D02*D03*
X8.32968Y5.33552D02*D03*
X9.04088Y5.33552D02*D03*
X9.75208Y5.33552D02*D03*
X10.46328Y5.33552D02*D03*
X11.13663Y5.33552D02*D03*
X11.72997Y5.34492D02*D03*
X12.42898Y5.34492D02*D03*
X-12.81405Y5.83082D02*D03*
X-12.07059Y5.83082D02*D03*
X-5.33552Y5.90728D02*D03*
X-4.3622Y5.90728D02*D03*
X-3.41224Y5.90728D02*D03*
X-2.43891Y5.90728D02*D03*
X-1.44831Y5.90728D02*D03*
X-0.47498Y5.90728D02*D03*
X0.47498Y5.90728D02*D03*
X1.44831Y5.90728D02*D03*
X2.43891Y5.90728D02*D03*
X3.41224Y5.90728D02*D03*
X4.3622Y5.90728D02*D03*
X5.33552Y5.90728D02*D03*
X12.07059Y5.83082D02*D03*
X12.81405Y5.83082D02*D03*
X-12.42898Y6.31673D02*D03*
X-11.72997Y6.31673D02*D03*
X-11.13663Y6.32612D02*D03*
X-10.46328Y6.32612D02*D03*
X-9.75208Y6.32612D02*D03*
X-9.04088Y6.32612D02*D03*
X-8.32968Y6.32612D02*D03*
X-7.61848Y6.32612D02*D03*
X-6.90728Y6.32612D02*D03*
X-6.32612Y6.44601D02*D03*
X-5.33552Y6.61848D02*D03*
X-4.3622Y6.61848D02*D03*
X-3.88722Y6.26288D02*D03*
X-3.41224Y6.61848D02*D03*
X-2.43891Y6.61848D02*D03*
X-1.44831Y6.61848D02*D03*
X-0.47498Y6.61848D02*D03*
X0Y6.26288D02*D03*
X0.47498Y6.61848D02*D03*
X1.44831Y6.61848D02*D03*
X2.43891Y6.61848D02*D03*
X3.41224Y6.61848D02*D03*
X3.88722Y6.26288D02*D03*
X4.3622Y6.61848D02*D03*
X5.33552Y6.61848D02*D03*
X6.32612Y6.44601D02*D03*
X6.90728Y6.32612D02*D03*
X7.61848Y6.32612D02*D03*
X8.32968Y6.32612D02*D03*
X9.04088Y6.32612D02*D03*
X9.75208Y6.32612D02*D03*
X10.46328Y6.32612D02*D03*
X11.13663Y6.32612D02*D03*
X11.72997Y6.31673D02*D03*
X12.42898Y6.31673D02*D03*
X-12.81405Y6.80263D02*D03*
X-12.07059Y6.80263D02*D03*
X-6.75056Y6.9149D02*D03*
X-3.88722Y6.97408D02*D03*
X0Y6.97408D02*D03*
X3.88722Y6.97408D02*D03*
X6.75056Y6.9149D02*D03*
X12.07059Y6.80263D02*D03*
X12.81405Y6.80263D02*D03*
X-12.42898Y7.28853D02*D03*
X-11.72997Y7.28853D02*D03*
X-11.13714Y7.31672D02*D03*
X-10.46328Y7.31672D02*D03*
X-9.75208Y7.31672D02*D03*
X-9.04088Y7.31672D02*D03*
X-8.32968Y7.31672D02*D03*
X-7.31672Y7.33958D02*D03*
X-6.32612Y7.32968D02*D03*
X-5.33552Y7.32968D02*D03*
X-4.3622Y7.32968D02*D03*
X-3.41224Y7.32968D02*D03*
X-2.43891Y7.32968D02*D03*
X-1.44831Y7.32968D02*D03*
X-0.47498Y7.32968D02*D03*
X0.47498Y7.32968D02*D03*
X1.44831Y7.32968D02*D03*
X2.43891Y7.32968D02*D03*
X3.41224Y7.32968D02*D03*
X4.3622Y7.32968D02*D03*
X5.33552Y7.32968D02*D03*
X6.32612Y7.32968D02*D03*
X7.31672Y7.33958D02*D03*
X8.32968Y7.31672D02*D03*
X9.04088Y7.31672D02*D03*
X9.75208Y7.31672D02*D03*
X10.46328Y7.31672D02*D03*
X11.13714Y7.31672D02*D03*
X11.72997Y7.28853D02*D03*
X12.42898Y7.28853D02*D03*
X-12.81405Y7.77443D02*D03*
X-12.07059Y7.77443D02*D03*
X-7.31672Y8.04088D02*D03*
X-6.32612Y8.04088D02*D03*
X-5.33552Y8.04088D02*D03*
X-4.3622Y8.04088D02*D03*
X-3.88722Y7.68528D02*D03*
X-3.41224Y8.04088D02*D03*
X-2.43891Y8.04088D02*D03*
X-1.44831Y8.04088D02*D03*
X-0.47498Y8.04088D02*D03*
X0Y7.68528D02*D03*
X0.47498Y8.04088D02*D03*
X1.44831Y8.04088D02*D03*
X2.43891Y8.04088D02*D03*
X3.41224Y8.04088D02*D03*
X3.88722Y7.68528D02*D03*
X4.3622Y8.04088D02*D03*
X5.33552Y8.04088D02*D03*
X6.32612Y8.04088D02*D03*
X7.31672Y8.04088D02*D03*
X12.07059Y7.77443D02*D03*
X12.81405Y7.77443D02*D03*
X-11.92886Y8.35076D02*D03*
X-11.25779Y8.30732D02*D03*
X-10.54659Y8.30732D02*D03*
X-9.83539Y8.30732D02*D03*
X-9.12419Y8.30732D02*D03*
X-8.30732Y8.17042D02*D03*
X-3.88722Y8.39648D02*D03*
X0Y8.39648D02*D03*
X3.88722Y8.39648D02*D03*
X8.30732Y8.17042D02*D03*
X9.12419Y8.30732D02*D03*
X9.83539Y8.30732D02*D03*
X10.54659Y8.30732D02*D03*
X11.25779Y8.30732D02*D03*
X11.92886Y8.35076D02*D03*
X-12.81405Y8.62051D02*D03*
X-12.24636Y8.85215D02*D03*
X-8.30732Y8.76376D02*D03*
X-7.31672Y8.75208D02*D03*
X-6.32612Y8.75208D02*D03*
X-5.33552Y8.75208D02*D03*
X-4.3622Y8.75208D02*D03*
X-3.41224Y8.75208D02*D03*
X-2.43891Y8.75208D02*D03*
X-1.44831Y8.75208D02*D03*
X-0.47498Y8.75208D02*D03*
X0.47498Y8.75208D02*D03*
X1.44831Y8.75208D02*D03*
X2.43891Y8.75208D02*D03*
X3.41224Y8.75208D02*D03*
X4.3622Y8.75208D02*D03*
X5.33552Y8.75208D02*D03*
X6.32612Y8.75208D02*D03*
X7.31672Y8.75208D02*D03*
X8.30732Y8.76376D02*D03*
X12.24636Y8.85215D02*D03*
X12.81405Y8.62051D02*D03*
X-12.81405Y9.29361D02*D03*
X-12.2207Y9.44499D02*D03*
X-10.56513Y9.30173D02*D03*
X-9.7122Y9.30173D02*D03*
X-8.30732Y9.45718D02*D03*
X-7.31672Y9.46328D02*D03*
X-6.32612Y9.46328D02*D03*
X-5.33552Y9.46328D02*D03*
X-4.3622Y9.46328D02*D03*
X-3.88722Y9.10768D02*D03*
X-3.41224Y9.46328D02*D03*
X-2.43891Y9.46328D02*D03*
X-1.44831Y9.46328D02*D03*
X-0.52502Y9.40435D02*D03*
X0Y9.10768D02*D03*
X0.52502Y9.40435D02*D03*
X1.44831Y9.46328D02*D03*
X2.43891Y9.46328D02*D03*
X3.41224Y9.46328D02*D03*
X3.88722Y9.10768D02*D03*
X4.3622Y9.46328D02*D03*
X5.33552Y9.46328D02*D03*
X6.32612Y9.46328D02*D03*
X7.31672Y9.46328D02*D03*
X8.30732Y9.45718D02*D03*
X9.7122Y9.30173D02*D03*
X10.56513Y9.30173D02*D03*
X12.2207Y9.44499D02*D03*
X12.81405Y9.29361D02*D03*
X-12.81405Y9.99211D02*D03*
X-12.22248Y10.03833D02*D03*
X-11.64285Y9.57986D02*D03*
X-9.32002Y9.747D02*D03*
X-3.88722Y9.81888D02*D03*
X3.88722Y9.81888D02*D03*
X9.32002Y9.747D02*D03*
X11.64285Y9.57986D02*D03*
X12.22248Y10.03833D02*D03*
X12.81405Y9.99211D02*D03*
X-12.23772Y10.63168D02*D03*
X-11.16279Y10.16279D02*D03*
X-10.11276Y10.23849D02*D03*
X-8.30732Y10.16838D02*D03*
X-7.31672Y10.13714D02*D03*
X-6.32612Y10.13663D02*D03*
X-5.33552Y10.13663D02*D03*
X-4.38836Y10.13663D02*D03*
X-3.38607Y10.13663D02*D03*
X-2.43891Y10.13663D02*D03*
X-1.44831Y10.13663D02*D03*
X-0.46279Y9.99465D02*D03*
X0Y10.36599D02*D03*
X0.46279Y9.99465D02*D03*
X1.44831Y10.13663D02*D03*
X2.43891Y10.13663D02*D03*
X3.38607Y10.13663D02*D03*
X4.38836Y10.13663D02*D03*
X5.33552Y10.13663D02*D03*
X6.32612Y10.13663D02*D03*
X7.31672Y10.13714D02*D03*
X8.30732Y10.16838D02*D03*
X10.11276Y10.23849D02*D03*
X11.16279Y10.16279D02*D03*
X12.23772Y10.63168D02*D03*
X-12.81405Y10.77316D02*D03*
X-11.64438Y10.64438D02*D03*
X-10.57986Y10.64285D02*D03*
X-9.55319Y10.70915D02*D03*
X-8.69798Y11.02817D02*D03*
X-7.77443Y11.07059D02*D03*
X-7.28853Y10.72998D02*D03*
X-6.80263Y11.07059D02*D03*
X-6.31673Y10.72998D02*D03*
X-5.83082Y11.07059D02*D03*
X-5.34492Y10.72998D02*D03*
X-4.85902Y11.07059D02*D03*
X-4.37312Y10.72998D02*D03*
X-3.88722Y11.07059D02*D03*
X-3.40131Y10.72998D02*D03*
X-2.91541Y11.07059D02*D03*
X-2.42951Y10.72998D02*D03*
X-1.94361Y11.07059D02*D03*
X-1.45771Y10.72998D02*D03*
X-0.9718Y11.07059D02*D03*
X-0.47981Y10.71524D02*D03*
X0Y11.07059D02*D03*
X0.47981Y10.71524D02*D03*
X0.9718Y11.07059D02*D03*
X1.45771Y10.72998D02*D03*
X1.94361Y11.07059D02*D03*
X2.42951Y10.72998D02*D03*
X2.91541Y11.07059D02*D03*
X3.40131Y10.72998D02*D03*
X3.88722Y11.07059D02*D03*
X4.37312Y10.72998D02*D03*
X4.85902Y11.07059D02*D03*
X5.34492Y10.72998D02*D03*
X5.83082Y11.07059D02*D03*
X6.31673Y10.72998D02*D03*
X6.80263Y11.07059D02*D03*
X7.28853Y10.72998D02*D03*
X7.77443Y11.07059D02*D03*
X8.69798Y11.02817D02*D03*
X9.55319Y10.70915D02*D03*
X10.57986Y10.64285D02*D03*
X11.64438Y10.64438D02*D03*
X12.81405Y10.77316D02*D03*
X-12.81405Y11.38276D02*D03*
X-12.22502Y11.22502D02*D03*
X-11.63168Y11.23772D02*D03*
X-11.03833Y11.22248D02*D03*
X-10.44499Y11.2207D02*D03*
X-9.85164Y11.22959D02*D03*
X-9.2583Y11.22426D02*D03*
X-8.26033Y11.42898D02*D03*
X-7.28853Y11.42898D02*D03*
X-6.31673Y11.42898D02*D03*
X-5.34492Y11.42898D02*D03*
X-4.37312Y11.42898D02*D03*
X-3.40131Y11.42898D02*D03*
X-2.42951Y11.42898D02*D03*
X-1.45771Y11.42898D02*D03*
X-0.4859Y11.42898D02*D03*
X0.4859Y11.42898D02*D03*
X1.45771Y11.42898D02*D03*
X2.42951Y11.42898D02*D03*
X3.40131Y11.42898D02*D03*
X4.37312Y11.42898D02*D03*
X5.34492Y11.42898D02*D03*
X6.31673Y11.42898D02*D03*
X7.28853Y11.42898D02*D03*
X8.26033Y11.42898D02*D03*
X9.2583Y11.22426D02*D03*
X9.85164Y11.22959D02*D03*
X10.44499Y11.2207D02*D03*
X11.03833Y11.22248D02*D03*
X11.63168Y11.23772D02*D03*
X12.22502Y11.22502D02*D03*
X12.81405Y11.38276D02*D03*
X-12.38275Y11.81405D02*D03*
X-11.77315Y11.81405D02*D03*
X-10.9921Y11.81405D02*D03*
X-10.2936Y11.81405D02*D03*
X-9.6205Y11.81405D02*D03*
X-8.74624Y11.81405D02*D03*
X-7.77443Y11.81405D02*D03*
X-6.80263Y11.81405D02*D03*
X-5.83082Y11.81405D02*D03*
X-4.85902Y11.81405D02*D03*
X-3.88722Y11.81405D02*D03*
X-2.91541Y11.81405D02*D03*
X-1.94361Y11.81405D02*D03*
X-0.9718Y11.81405D02*D03*
X0Y11.81405D02*D03*
X0.9718Y11.81405D02*D03*
X1.94361Y11.81405D02*D03*
X2.91541Y11.81405D02*D03*
X3.88722Y11.81405D02*D03*
X4.85902Y11.81405D02*D03*
X5.83082Y11.81405D02*D03*
X6.80263Y11.81405D02*D03*
X7.77443Y11.81405D02*D03*
X8.74624Y11.81405D02*D03*
X9.6205Y11.81405D02*D03*
X10.2936Y11.81405D02*D03*
X10.9921Y11.81405D02*D03*
X11.77315Y11.81405D02*D03*
X12.38275Y11.81405D02*D03*




M02*