%FSLAX26Y26*%
%MOMM*%
%ADD10C,0.400*%
D10*

X32.45146Y8.68595D02*D03*
X31.67041Y8.68595D02*D03*
X30.94651Y8.68595D02*D03*
X30.24801Y8.68595D02*D03*
X29.3359Y8.68595D02*D03*
X28.27443Y8.68595D02*D03*
X27.30263Y8.68595D02*D03*
X26.33082Y8.68595D02*D03*
X25.35902Y8.68595D02*D03*
X24.38722Y8.68595D02*D03*
X23.41541Y8.68595D02*D03*
X22.44361Y8.68595D02*D03*
X21.4718Y8.68595D02*D03*
X20.5Y8.68595D02*D03*
X19.5282Y8.68595D02*D03*
X18.55639Y8.68595D02*D03*
X17.58459Y8.68595D02*D03*
X16.61278Y8.68595D02*D03*
X15.64098Y8.68595D02*D03*
X14.66918Y8.68595D02*D03*
X13.69737Y8.68595D02*D03*
X12.72557Y8.68595D02*D03*
X11.75376Y8.68595D02*D03*
X10.8795Y8.68595D02*D03*
X10.2064Y8.68595D02*D03*
X9.5079Y8.68595D02*D03*
X8.72685Y8.68595D02*D03*
X8.11725Y8.68595D02*D03*
X32.88275Y9.11724D02*D03*
X32.13168Y9.26228D02*D03*
X31.53833Y9.27752D02*D03*
X30.94499Y9.2793D02*D03*
X30.35164Y9.27041D02*D03*
X29.7583Y9.27574D02*D03*
X28.76033Y9.07102D02*D03*
X27.78853Y9.07102D02*D03*
X26.81673Y9.07102D02*D03*
X25.84492Y9.07102D02*D03*
X24.87312Y9.07102D02*D03*
X23.90131Y9.07102D02*D03*
X22.92951Y9.07102D02*D03*
X21.95771Y9.07102D02*D03*
X20.9859Y9.07102D02*D03*
X20.0141Y9.07102D02*D03*
X19.04229Y9.07102D02*D03*
X18.07049Y9.07102D02*D03*
X17.09869Y9.07102D02*D03*
X16.12688Y9.07102D02*D03*
X15.15508Y9.07102D02*D03*
X14.18327Y9.07102D02*D03*
X13.21147Y9.07102D02*D03*
X12.23967Y9.07102D02*D03*
X11.2417Y9.27574D02*D03*
X10.64836Y9.27041D02*D03*
X10.05501Y9.2793D02*D03*
X9.46167Y9.27752D02*D03*
X8.86832Y9.26228D02*D03*
X8.27498Y9.27498D02*D03*
X7.68595Y9.11724D02*D03*
X33.31405Y9.54854D02*D03*
X32.14438Y9.85562D02*D03*
X31.07986Y9.85715D02*D03*
X30.05319Y9.79085D02*D03*
X29.19798Y9.47183D02*D03*
X28.27443Y9.42941D02*D03*
X27.78853Y9.77002D02*D03*
X27.30263Y9.42941D02*D03*
X26.81673Y9.77002D02*D03*
X26.33082Y9.42941D02*D03*
X25.84492Y9.77002D02*D03*
X25.35902Y9.42941D02*D03*
X24.87312Y9.77002D02*D03*
X24.38722Y9.42941D02*D03*
X23.90131Y9.77002D02*D03*
X23.41541Y9.42941D02*D03*
X22.92951Y9.77002D02*D03*
X22.44361Y9.42941D02*D03*
X21.95771Y9.77002D02*D03*
X21.4718Y9.42941D02*D03*
X20.97981Y9.78476D02*D03*
X20.5Y9.42941D02*D03*
X20.02019Y9.78476D02*D03*
X19.5282Y9.42941D02*D03*
X19.04229Y9.77002D02*D03*
X18.55639Y9.42941D02*D03*
X18.07049Y9.77002D02*D03*
X17.58459Y9.42941D02*D03*
X17.09869Y9.77002D02*D03*
X16.61278Y9.42941D02*D03*
X16.12688Y9.77002D02*D03*
X15.64098Y9.42941D02*D03*
X15.15508Y9.77002D02*D03*
X14.66918Y9.42941D02*D03*
X14.18327Y9.77002D02*D03*
X13.69737Y9.42941D02*D03*
X13.21147Y9.77002D02*D03*
X12.72557Y9.42941D02*D03*
X11.80202Y9.47183D02*D03*
X10.94681Y9.79085D02*D03*
X9.92014Y9.85715D02*D03*
X8.85562Y9.85562D02*D03*
X7.68595Y9.72684D02*D03*
X32.73772Y9.86832D02*D03*
X31.66279Y10.33721D02*D03*
X30.61276Y10.26151D02*D03*
X28.80732Y10.33162D02*D03*
X27.81672Y10.36286D02*D03*
X26.82612Y10.36337D02*D03*
X25.83552Y10.36337D02*D03*
X24.88836Y10.36337D02*D03*
X23.88607Y10.36337D02*D03*
X22.93891Y10.36337D02*D03*
X21.94831Y10.36337D02*D03*
X20.96279Y10.50535D02*D03*
X20.5Y10.13401D02*D03*
X20.03721Y10.50535D02*D03*
X19.05169Y10.36337D02*D03*
X18.06109Y10.36337D02*D03*
X17.11393Y10.36337D02*D03*
X16.11164Y10.36337D02*D03*
X15.16448Y10.36337D02*D03*
X14.17388Y10.36337D02*D03*
X13.18328Y10.36286D02*D03*
X12.19268Y10.33162D02*D03*
X10.38724Y10.26151D02*D03*
X9.33721Y10.33721D02*D03*
X8.26228Y9.86832D02*D03*
X33.31405Y10.32959D02*D03*
X32.72248Y10.46167D02*D03*
X32.14285Y10.92014D02*D03*
X29.82002Y10.753D02*D03*
X24.38722Y10.68112D02*D03*
X16.61278Y10.68112D02*D03*
X11.17998Y10.753D02*D03*
X8.85715Y10.92014D02*D03*
X8.27752Y10.46167D02*D03*
X7.68595Y10.50789D02*D03*
X33.31405Y11.05349D02*D03*
X32.7207Y11.05501D02*D03*
X31.06513Y11.19827D02*D03*
X30.2122Y11.19827D02*D03*
X28.80732Y11.04282D02*D03*
X27.81672Y11.03672D02*D03*
X26.82612Y11.03672D02*D03*
X25.83552Y11.03672D02*D03*
X24.8622Y11.03672D02*D03*
X24.38722Y11.39232D02*D03*
X23.91224Y11.03672D02*D03*
X22.93891Y11.03672D02*D03*
X21.94831Y11.03672D02*D03*
X21.02502Y11.09565D02*D03*
X20.5Y11.39232D02*D03*
X19.97498Y11.09565D02*D03*
X19.05169Y11.03672D02*D03*
X18.06109Y11.03672D02*D03*
X17.08776Y11.03672D02*D03*
X16.61278Y11.39232D02*D03*
X16.1378Y11.03672D02*D03*
X15.16448Y11.03672D02*D03*
X14.17388Y11.03672D02*D03*
X13.18328Y11.03672D02*D03*
X12.19268Y11.04282D02*D03*
X10.7878Y11.19827D02*D03*
X9.93487Y11.19827D02*D03*
X8.2793Y11.05501D02*D03*
X7.68595Y11.20639D02*D03*
X33.31405Y11.82082D02*D03*
X32.74636Y11.64785D02*D03*
X28.80732Y11.73624D02*D03*
X27.81672Y11.74792D02*D03*
X26.82612Y11.74792D02*D03*
X25.83552Y11.74792D02*D03*
X24.8622Y11.74792D02*D03*
X23.91224Y11.74792D02*D03*
X22.93891Y11.74792D02*D03*
X21.94831Y11.74792D02*D03*
X20.97498Y11.74792D02*D03*
X20.02502Y11.74792D02*D03*
X19.05169Y11.74792D02*D03*
X18.06109Y11.74792D02*D03*
X17.08776Y11.74792D02*D03*
X16.1378Y11.74792D02*D03*
X15.16448Y11.74792D02*D03*
X14.17388Y11.74792D02*D03*
X13.18328Y11.74792D02*D03*
X12.19268Y11.73624D02*D03*
X8.25364Y11.64785D02*D03*
X7.68595Y11.87949D02*D03*
X32.42886Y12.14924D02*D03*
X31.75779Y12.19268D02*D03*
X31.04659Y12.19268D02*D03*
X30.33539Y12.19268D02*D03*
X29.62419Y12.19268D02*D03*
X28.80732Y12.32958D02*D03*
X24.38722Y12.10352D02*D03*
X20.5Y12.10352D02*D03*
X16.61278Y12.10352D02*D03*
X12.19268Y12.32958D02*D03*
X11.37581Y12.19268D02*D03*
X10.66461Y12.19268D02*D03*
X9.95341Y12.19268D02*D03*
X9.24221Y12.19268D02*D03*
X8.57114Y12.14924D02*D03*
X33.31405Y12.68442D02*D03*
X32.57059Y12.72557D02*D03*
X27.81672Y12.45912D02*D03*
X26.82612Y12.45912D02*D03*
X25.83552Y12.45912D02*D03*
X24.8622Y12.45912D02*D03*
X24.38722Y12.81472D02*D03*
X23.91224Y12.45912D02*D03*
X22.93891Y12.45912D02*D03*
X21.94831Y12.45912D02*D03*
X20.97498Y12.45912D02*D03*
X20.5Y12.81472D02*D03*
X20.02502Y12.45912D02*D03*
X19.05169Y12.45912D02*D03*
X18.06109Y12.45912D02*D03*
X17.08776Y12.45912D02*D03*
X16.61278Y12.81472D02*D03*
X16.1378Y12.45912D02*D03*
X15.16448Y12.45912D02*D03*
X14.17388Y12.45912D02*D03*
X13.18328Y12.45912D02*D03*
X8.42941Y12.72557D02*D03*
X7.68595Y12.72557D02*D03*
X32.92898Y13.21147D02*D03*
X32.22997Y13.21147D02*D03*
X31.63714Y13.18328D02*D03*
X30.96328Y13.18328D02*D03*
X30.25208Y13.18328D02*D03*
X29.54088Y13.18328D02*D03*
X28.82968Y13.18328D02*D03*
X27.81672Y13.16042D02*D03*
X26.82612Y13.17032D02*D03*
X25.83552Y13.17032D02*D03*
X24.8622Y13.17032D02*D03*
X23.91224Y13.17032D02*D03*
X22.93891Y13.17032D02*D03*
X21.94831Y13.17032D02*D03*
X20.97498Y13.17032D02*D03*
X20.02502Y13.17032D02*D03*
X19.05169Y13.17032D02*D03*
X18.06109Y13.17032D02*D03*
X17.08776Y13.17032D02*D03*
X16.1378Y13.17032D02*D03*
X15.16448Y13.17032D02*D03*
X14.17388Y13.17032D02*D03*
X13.18328Y13.16042D02*D03*
X12.17032Y13.18328D02*D03*
X11.45912Y13.18328D02*D03*
X10.74792Y13.18328D02*D03*
X10.03672Y13.18328D02*D03*
X9.36286Y13.18328D02*D03*
X8.77003Y13.21147D02*D03*
X8.07102Y13.21147D02*D03*
X33.31405Y13.69737D02*D03*
X32.57059Y13.69737D02*D03*
X27.25056Y13.5851D02*D03*
X24.38722Y13.52592D02*D03*
X20.5Y13.52592D02*D03*
X16.61278Y13.52592D02*D03*
X13.74944Y13.5851D02*D03*
X8.42941Y13.69737D02*D03*
X7.68595Y13.69737D02*D03*
X32.92898Y14.18327D02*D03*
X32.22997Y14.18327D02*D03*
X31.63663Y14.17388D02*D03*
X30.96328Y14.17388D02*D03*
X30.25208Y14.17388D02*D03*
X29.54088Y14.17388D02*D03*
X28.82968Y14.17388D02*D03*
X28.11848Y14.17388D02*D03*
X27.40728Y14.17388D02*D03*
X26.82612Y14.05399D02*D03*
X25.83552Y13.88152D02*D03*
X24.8622Y13.88152D02*D03*
X24.38722Y14.23712D02*D03*
X23.91224Y13.88152D02*D03*
X22.93891Y13.88152D02*D03*
X21.94831Y13.88152D02*D03*
X20.97498Y13.88152D02*D03*
X20.5Y14.23712D02*D03*
X20.02502Y13.88152D02*D03*
X19.05169Y13.88152D02*D03*
X18.06109Y13.88152D02*D03*
X17.08776Y13.88152D02*D03*
X16.61278Y14.23712D02*D03*
X16.1378Y13.88152D02*D03*
X15.16448Y13.88152D02*D03*
X14.17388Y14.05399D02*D03*
X13.59272Y14.17388D02*D03*
X12.88152Y14.17388D02*D03*
X12.17032Y14.17388D02*D03*
X11.45912Y14.17388D02*D03*
X10.74792Y14.17388D02*D03*
X10.03672Y14.17388D02*D03*
X9.36337Y14.17388D02*D03*
X8.77003Y14.18327D02*D03*
X8.07102Y14.18327D02*D03*
X33.31405Y14.66918D02*D03*
X32.57059Y14.66918D02*D03*
X25.83552Y14.59272D02*D03*
X24.8622Y14.59272D02*D03*
X23.91224Y14.59272D02*D03*
X22.93891Y14.59272D02*D03*
X21.94831Y14.59272D02*D03*
X20.97498Y14.59272D02*D03*
X20.02502Y14.59272D02*D03*
X19.05169Y14.59272D02*D03*
X18.06109Y14.59272D02*D03*
X17.08776Y14.59272D02*D03*
X16.1378Y14.59272D02*D03*
X15.16448Y14.59272D02*D03*
X8.42941Y14.66918D02*D03*
X7.68595Y14.66918D02*D03*
X32.92898Y15.15508D02*D03*
X32.22997Y15.15508D02*D03*
X31.63663Y15.16448D02*D03*
X30.96328Y15.16448D02*D03*
X30.25208Y15.16448D02*D03*
X29.54088Y15.16448D02*D03*
X28.82968Y15.16448D02*D03*
X28.11848Y15.16448D02*D03*
X27.40728Y15.16448D02*D03*
X26.80479Y15.16448D02*D03*
X25.83552Y15.30392D02*D03*
X24.8622Y15.30392D02*D03*
X24.38722Y14.94832D02*D03*
X23.91224Y15.30392D02*D03*
X22.93891Y15.30392D02*D03*
X21.94831Y15.30392D02*D03*
X20.97498Y15.30392D02*D03*
X20.5Y14.94832D02*D03*
X20.02502Y15.30392D02*D03*
X19.05169Y15.30392D02*D03*
X18.06109Y15.30392D02*D03*
X17.08776Y15.30392D02*D03*
X16.61278Y14.94832D02*D03*
X16.1378Y15.30392D02*D03*
X15.16448Y15.30392D02*D03*
X14.19521Y15.16448D02*D03*
X13.59272Y15.16448D02*D03*
X12.88152Y15.16448D02*D03*
X12.17032Y15.16448D02*D03*
X11.45912Y15.16448D02*D03*
X10.74792Y15.16448D02*D03*
X10.03672Y15.16448D02*D03*
X9.36337Y15.16448D02*D03*
X8.77003Y15.15508D02*D03*
X8.07102Y15.15508D02*D03*
X33.31405Y15.64098D02*D03*
X32.57059Y15.64098D02*D03*
X8.42941Y15.64098D02*D03*
X7.68595Y15.64098D02*D03*
X32.92898Y16.12688D02*D03*
X32.22997Y16.12688D02*D03*
X31.63663Y16.11164D02*D03*
X30.96328Y16.1378D02*D03*
X30.25208Y16.1378D02*D03*
X29.54088Y16.1378D02*D03*
X28.82968Y16.1378D02*D03*
X28.11848Y16.1378D02*D03*
X27.40728Y16.1378D02*D03*
X26.69608Y16.1378D02*D03*
X14.30392Y16.1378D02*D03*
X13.59272Y16.1378D02*D03*
X12.88152Y16.1378D02*D03*
X12.17032Y16.1378D02*D03*
X11.45912Y16.1378D02*D03*
X10.74792Y16.1378D02*D03*
X10.03672Y16.1378D02*D03*
X9.36337Y16.11164D02*D03*
X8.77003Y16.12688D02*D03*
X8.07102Y16.12688D02*D03*
X33.31405Y16.61278D02*D03*
X32.57059Y16.61278D02*D03*
X31.31888Y16.61278D02*D03*
X30.60768Y16.61278D02*D03*
X29.89648Y16.61278D02*D03*
X29.18528Y16.61278D02*D03*
X28.47408Y16.61278D02*D03*
X27.76288Y16.61278D02*D03*
X27.05168Y16.61278D02*D03*
X25.80733Y16.18606D02*D03*
X25.04914Y16.18606D02*D03*
X24.29095Y16.18606D02*D03*
X23.53276Y16.18606D02*D03*
X22.77457Y16.18606D02*D03*
X22.01638Y16.18606D02*D03*
X21.25819Y16.18606D02*D03*
X20.5Y16.18606D02*D03*
X19.74181Y16.18606D02*D03*
X18.98362Y16.18606D02*D03*
X18.22543Y16.18606D02*D03*
X17.46724Y16.18606D02*D03*
X16.70905Y16.18606D02*D03*
X15.95086Y16.18606D02*D03*
X15.19267Y16.18606D02*D03*
X13.94832Y16.61278D02*D03*
X13.23712Y16.61278D02*D03*
X12.52592Y16.61278D02*D03*
X11.81472Y16.61278D02*D03*
X11.10352Y16.61278D02*D03*
X10.39232Y16.61278D02*D03*
X9.68112Y16.61278D02*D03*
X8.42941Y16.61278D02*D03*
X7.68595Y16.61278D02*D03*
X32.92898Y17.09869D02*D03*
X32.22997Y17.09869D02*D03*
X31.63663Y17.11393D02*D03*
X30.96328Y17.08776D02*D03*
X30.25208Y17.08776D02*D03*
X29.54088Y17.08776D02*D03*
X28.82968Y17.08776D02*D03*
X28.11848Y17.08776D02*D03*
X27.40728Y17.08776D02*D03*
X26.69608Y17.08776D02*D03*
X25.80733Y16.97042D02*D03*
X25.04914Y16.97042D02*D03*
X24.29095Y16.97042D02*D03*
X23.53276Y16.97042D02*D03*
X22.77457Y16.97042D02*D03*
X22.01638Y16.97042D02*D03*
X21.25819Y16.97042D02*D03*
X20.5Y16.97042D02*D03*
X19.74181Y16.97042D02*D03*
X18.98362Y16.97042D02*D03*
X18.22543Y16.97042D02*D03*
X17.46724Y16.97042D02*D03*
X16.70905Y16.97042D02*D03*
X15.95086Y16.97042D02*D03*
X15.19267Y16.97042D02*D03*
X14.30392Y17.08776D02*D03*
X13.59272Y17.08776D02*D03*
X12.88152Y17.08776D02*D03*
X12.17032Y17.08776D02*D03*
X11.45912Y17.08776D02*D03*
X10.74792Y17.08776D02*D03*
X10.03672Y17.08776D02*D03*
X9.36337Y17.11393D02*D03*
X8.77003Y17.09869D02*D03*
X8.07102Y17.09869D02*D03*
X33.31405Y17.58459D02*D03*
X32.57059Y17.58459D02*D03*
X8.42941Y17.58459D02*D03*
X7.68595Y17.58459D02*D03*
X32.92898Y18.07049D02*D03*
X32.22997Y18.07049D02*D03*
X31.63663Y18.06109D02*D03*
X30.96328Y18.06109D02*D03*
X30.25208Y18.06109D02*D03*
X29.54088Y18.06109D02*D03*
X28.82968Y18.06109D02*D03*
X28.11848Y18.06109D02*D03*
X27.40728Y18.06109D02*D03*
X26.69608Y18.06109D02*D03*
X25.80733Y17.75477D02*D03*
X25.04914Y17.75477D02*D03*
X24.29095Y17.75477D02*D03*
X23.53276Y17.75477D02*D03*
X22.77457Y17.75477D02*D03*
X22.01638Y17.75477D02*D03*
X21.25819Y17.75477D02*D03*
X20.5Y17.75477D02*D03*
X19.74181Y17.75477D02*D03*
X18.98362Y17.75477D02*D03*
X18.22543Y17.75477D02*D03*
X17.46724Y17.75477D02*D03*
X16.70905Y17.75477D02*D03*
X15.95086Y17.75477D02*D03*
X15.19267Y17.75477D02*D03*
X14.30392Y18.06109D02*D03*
X13.59272Y18.06109D02*D03*
X12.88152Y18.06109D02*D03*
X12.17032Y18.06109D02*D03*
X11.45912Y18.06109D02*D03*
X10.74792Y18.06109D02*D03*
X10.03672Y18.06109D02*D03*
X9.36337Y18.06109D02*D03*
X8.77003Y18.07049D02*D03*
X8.07102Y18.07049D02*D03*
X33.31405Y18.55639D02*D03*
X32.57059Y18.55639D02*D03*
X25.80733Y18.53912D02*D03*
X25.04914Y18.53912D02*D03*
X24.29095Y18.53912D02*D03*
X23.53276Y18.53912D02*D03*
X22.77457Y18.53912D02*D03*
X22.01638Y18.53912D02*D03*
X21.25819Y18.53912D02*D03*
X20.5Y18.53912D02*D03*
X19.74181Y18.53912D02*D03*
X18.98362Y18.53912D02*D03*
X18.22543Y18.53912D02*D03*
X17.46724Y18.53912D02*D03*
X16.70905Y18.53912D02*D03*
X15.95086Y18.53912D02*D03*
X15.19267Y18.53912D02*D03*
X8.42941Y18.55639D02*D03*
X7.68595Y18.55639D02*D03*
X32.92898Y19.04229D02*D03*
X32.22997Y19.04229D02*D03*
X31.63663Y19.05169D02*D03*
X30.96328Y19.05169D02*D03*
X30.25208Y19.05169D02*D03*
X29.54088Y19.05169D02*D03*
X28.82968Y19.05169D02*D03*
X28.11848Y19.05169D02*D03*
X27.40728Y19.05169D02*D03*
X26.69608Y19.05169D02*D03*
X14.30392Y19.05169D02*D03*
X13.59272Y19.05169D02*D03*
X12.88152Y19.05169D02*D03*
X12.17032Y19.05169D02*D03*
X11.45912Y19.05169D02*D03*
X10.74792Y19.05169D02*D03*
X10.03672Y19.05169D02*D03*
X9.36337Y19.05169D02*D03*
X8.77003Y19.04229D02*D03*
X8.07102Y19.04229D02*D03*
X33.31405Y19.5282D02*D03*
X32.57059Y19.5282D02*D03*
X25.80733Y19.32347D02*D03*
X25.04914Y19.32347D02*D03*
X24.29095Y19.32347D02*D03*
X23.53276Y19.32347D02*D03*
X22.77457Y19.32347D02*D03*
X22.01638Y19.32347D02*D03*
X21.25819Y19.32347D02*D03*
X20.5Y19.32347D02*D03*
X19.74181Y19.32347D02*D03*
X18.98362Y19.32347D02*D03*
X18.22543Y19.32347D02*D03*
X17.46724Y19.32347D02*D03*
X16.70905Y19.32347D02*D03*
X15.95086Y19.32347D02*D03*
X15.19267Y19.32347D02*D03*
X8.42941Y19.5282D02*D03*
X7.68595Y19.5282D02*D03*
X32.92898Y20.0141D02*D03*
X32.21524Y20.02019D02*D03*
X31.49464Y20.03721D02*D03*
X30.90435Y19.97498D02*D03*
X30.25208Y20.02502D02*D03*
X29.54088Y20.02502D02*D03*
X28.82968Y20.02502D02*D03*
X28.11848Y20.02502D02*D03*
X27.40728Y20.02502D02*D03*
X26.69608Y20.02502D02*D03*
X25.80733Y20.10782D02*D03*
X25.04914Y20.10782D02*D03*
X24.29095Y20.10782D02*D03*
X23.53276Y20.10782D02*D03*
X22.77457Y20.10782D02*D03*
X22.01638Y20.10782D02*D03*
X21.25819Y20.10782D02*D03*
X20.5Y20.10782D02*D03*
X19.74181Y20.10782D02*D03*
X18.98362Y20.10782D02*D03*
X18.22543Y20.10782D02*D03*
X17.46724Y20.10782D02*D03*
X16.70905Y20.10782D02*D03*
X15.95086Y20.10782D02*D03*
X15.19267Y20.10782D02*D03*
X14.30392Y20.02502D02*D03*
X13.59272Y20.02502D02*D03*
X12.88152Y20.02502D02*D03*
X12.17032Y20.02502D02*D03*
X11.45912Y20.02502D02*D03*
X10.74792Y20.02502D02*D03*
X10.09565Y19.97498D02*D03*
X9.50536Y20.03721D02*D03*
X8.78476Y20.02019D02*D03*
X8.07102Y20.0141D02*D03*
X33.31405Y20.5D02*D03*
X32.57059Y20.5D02*D03*
X31.86599Y20.5D02*D03*
X30.60768Y20.5D02*D03*
X29.89648Y20.5D02*D03*
X29.18528Y20.5D02*D03*
X28.47408Y20.5D02*D03*
X27.76288Y20.5D02*D03*
X27.05168Y20.5D02*D03*
X13.94832Y20.5D02*D03*
X13.23712Y20.5D02*D03*
X12.52592Y20.5D02*D03*
X11.81472Y20.5D02*D03*
X11.10352Y20.5D02*D03*
X10.39232Y20.5D02*D03*
X9.13401Y20.5D02*D03*
X8.42941Y20.5D02*D03*
X7.68595Y20.5D02*D03*
X32.92898Y20.9859D02*D03*
X32.21524Y20.97981D02*D03*
X31.49464Y20.96279D02*D03*
X30.90435Y21.02502D02*D03*
X30.25208Y20.97498D02*D03*
X29.54088Y20.97498D02*D03*
X28.82968Y20.97498D02*D03*
X28.11848Y20.97498D02*D03*
X27.40728Y20.97498D02*D03*
X26.69608Y20.97498D02*D03*
X25.80733Y20.89218D02*D03*
X25.04914Y20.89218D02*D03*
X24.29095Y20.89218D02*D03*
X23.53276Y20.89218D02*D03*
X22.77457Y20.89218D02*D03*
X22.01638Y20.89218D02*D03*
X21.25819Y20.89218D02*D03*
X20.5Y20.89218D02*D03*
X19.74181Y20.89218D02*D03*
X18.98362Y20.89218D02*D03*
X18.22543Y20.89218D02*D03*
X17.46724Y20.89218D02*D03*
X16.70905Y20.89218D02*D03*
X15.95086Y20.89218D02*D03*
X15.19267Y20.89218D02*D03*
X14.30392Y20.97498D02*D03*
X13.59272Y20.97498D02*D03*
X12.88152Y20.97498D02*D03*
X12.17032Y20.97498D02*D03*
X11.45912Y20.97498D02*D03*
X10.74792Y20.97498D02*D03*
X10.09565Y21.02502D02*D03*
X9.50536Y20.96279D02*D03*
X8.78476Y20.97981D02*D03*
X8.07102Y20.9859D02*D03*
X33.31405Y21.4718D02*D03*
X32.57059Y21.4718D02*D03*
X25.80733Y21.67653D02*D03*
X25.04914Y21.67653D02*D03*
X24.29095Y21.67653D02*D03*
X23.53276Y21.67653D02*D03*
X22.77457Y21.67653D02*D03*
X22.01638Y21.67653D02*D03*
X21.25819Y21.67653D02*D03*
X20.5Y21.67653D02*D03*
X19.74181Y21.67653D02*D03*
X18.98362Y21.67653D02*D03*
X18.22543Y21.67653D02*D03*
X17.46724Y21.67653D02*D03*
X16.70905Y21.67653D02*D03*
X15.95086Y21.67653D02*D03*
X15.19267Y21.67653D02*D03*
X8.42941Y21.4718D02*D03*
X7.68595Y21.4718D02*D03*
X32.92898Y21.95771D02*D03*
X32.22997Y21.95771D02*D03*
X31.63663Y21.94831D02*D03*
X30.96328Y21.94831D02*D03*
X30.25208Y21.94831D02*D03*
X29.54088Y21.94831D02*D03*
X28.82968Y21.94831D02*D03*
X28.11848Y21.94831D02*D03*
X27.40728Y21.94831D02*D03*
X26.69608Y21.94831D02*D03*
X14.30392Y21.94831D02*D03*
X13.59272Y21.94831D02*D03*
X12.88152Y21.94831D02*D03*
X12.17032Y21.94831D02*D03*
X11.45912Y21.94831D02*D03*
X10.74792Y21.94831D02*D03*
X10.03672Y21.94831D02*D03*
X9.36337Y21.94831D02*D03*
X8.77003Y21.95771D02*D03*
X8.07102Y21.95771D02*D03*
X33.31405Y22.44361D02*D03*
X32.57059Y22.44361D02*D03*
X25.80733Y22.46088D02*D03*
X25.04914Y22.46088D02*D03*
X24.29095Y22.46088D02*D03*
X23.53276Y22.46088D02*D03*
X22.77457Y22.46088D02*D03*
X22.01638Y22.46088D02*D03*
X21.25819Y22.46088D02*D03*
X20.5Y22.46088D02*D03*
X19.74181Y22.46088D02*D03*
X18.98362Y22.46088D02*D03*
X18.22543Y22.46088D02*D03*
X17.46724Y22.46088D02*D03*
X16.70905Y22.46088D02*D03*
X15.95086Y22.46088D02*D03*
X15.19267Y22.46088D02*D03*
X8.42941Y22.44361D02*D03*
X7.68595Y22.44361D02*D03*
X32.92898Y22.92951D02*D03*
X32.22997Y22.92951D02*D03*
X31.63663Y22.93891D02*D03*
X30.96328Y22.93891D02*D03*
X30.25208Y22.93891D02*D03*
X29.54088Y22.93891D02*D03*
X28.82968Y22.93891D02*D03*
X28.11848Y22.93891D02*D03*
X27.40728Y22.93891D02*D03*
X26.69608Y22.93891D02*D03*
X25.80733Y23.24523D02*D03*
X25.04914Y23.24523D02*D03*
X24.29095Y23.24523D02*D03*
X23.53276Y23.24523D02*D03*
X22.77457Y23.24523D02*D03*
X22.01638Y23.24523D02*D03*
X21.25819Y23.24523D02*D03*
X20.5Y23.24523D02*D03*
X19.74181Y23.24523D02*D03*
X18.98362Y23.24523D02*D03*
X18.22543Y23.24523D02*D03*
X17.46724Y23.24523D02*D03*
X16.70905Y23.24523D02*D03*
X15.95086Y23.24523D02*D03*
X15.19267Y23.24523D02*D03*
X14.30392Y22.93891D02*D03*
X13.59272Y22.93891D02*D03*
X12.88152Y22.93891D02*D03*
X12.17032Y22.93891D02*D03*
X11.45912Y22.93891D02*D03*
X10.74792Y22.93891D02*D03*
X10.03672Y22.93891D02*D03*
X9.36337Y22.93891D02*D03*
X8.77003Y22.92951D02*D03*
X8.07102Y22.92951D02*D03*
X33.31405Y23.41541D02*D03*
X32.57059Y23.41541D02*D03*
X8.42941Y23.41541D02*D03*
X7.68595Y23.41541D02*D03*
X32.92898Y23.90131D02*D03*
X32.22997Y23.90131D02*D03*
X31.63663Y23.88607D02*D03*
X30.96328Y23.91224D02*D03*
X30.25208Y23.91224D02*D03*
X29.54088Y23.91224D02*D03*
X28.82968Y23.91224D02*D03*
X28.11848Y23.91224D02*D03*
X27.40728Y23.91224D02*D03*
X26.69608Y23.91224D02*D03*
X25.80733Y24.02958D02*D03*
X25.04914Y24.02958D02*D03*
X24.29095Y24.02958D02*D03*
X23.53276Y24.02958D02*D03*
X22.77457Y24.02958D02*D03*
X22.01638Y24.02958D02*D03*
X21.25819Y24.02958D02*D03*
X20.5Y24.02958D02*D03*
X19.74181Y24.02958D02*D03*
X18.98362Y24.02958D02*D03*
X18.22543Y24.02958D02*D03*
X17.46724Y24.02958D02*D03*
X16.70905Y24.02958D02*D03*
X15.95086Y24.02958D02*D03*
X15.19267Y24.02958D02*D03*
X14.30392Y23.91224D02*D03*
X13.59272Y23.91224D02*D03*
X12.88152Y23.91224D02*D03*
X12.17032Y23.91224D02*D03*
X11.45912Y23.91224D02*D03*
X10.74792Y23.91224D02*D03*
X10.03672Y23.91224D02*D03*
X9.36337Y23.88607D02*D03*
X8.77003Y23.90131D02*D03*
X8.07102Y23.90131D02*D03*
X33.31405Y24.38722D02*D03*
X32.57059Y24.38722D02*D03*
X31.31888Y24.38722D02*D03*
X30.60768Y24.38722D02*D03*
X29.89648Y24.38722D02*D03*
X29.18528Y24.38722D02*D03*
X28.47408Y24.38722D02*D03*
X27.76288Y24.38722D02*D03*
X27.05168Y24.38722D02*D03*
X25.80733Y24.81394D02*D03*
X25.04914Y24.81394D02*D03*
X24.29095Y24.81394D02*D03*
X23.53276Y24.81394D02*D03*
X22.77457Y24.81394D02*D03*
X22.01638Y24.81394D02*D03*
X21.25819Y24.81394D02*D03*
X20.5Y24.81394D02*D03*
X19.74181Y24.81394D02*D03*
X18.98362Y24.81394D02*D03*
X18.22543Y24.81394D02*D03*
X17.46724Y24.81394D02*D03*
X16.70905Y24.81394D02*D03*
X15.95086Y24.81394D02*D03*
X15.19267Y24.81394D02*D03*
X13.94832Y24.38722D02*D03*
X13.23712Y24.38722D02*D03*
X12.52592Y24.38722D02*D03*
X11.81472Y24.38722D02*D03*
X11.10352Y24.38722D02*D03*
X10.39232Y24.38722D02*D03*
X9.68112Y24.38722D02*D03*
X8.42941Y24.38722D02*D03*
X7.68595Y24.38722D02*D03*
X32.92898Y24.87312D02*D03*
X32.22997Y24.87312D02*D03*
X31.63663Y24.88836D02*D03*
X30.96328Y24.8622D02*D03*
X30.25208Y24.8622D02*D03*
X29.54088Y24.8622D02*D03*
X28.82968Y24.8622D02*D03*
X28.11848Y24.8622D02*D03*
X27.40728Y24.8622D02*D03*
X26.69608Y24.8622D02*D03*
X14.30392Y24.8622D02*D03*
X13.59272Y24.8622D02*D03*
X12.88152Y24.8622D02*D03*
X12.17032Y24.8622D02*D03*
X11.45912Y24.8622D02*D03*
X10.74792Y24.8622D02*D03*
X10.03672Y24.8622D02*D03*
X9.36337Y24.88836D02*D03*
X8.77003Y24.87312D02*D03*
X8.07102Y24.87312D02*D03*
X33.31405Y25.35902D02*D03*
X32.57059Y25.35902D02*D03*
X8.42941Y25.35902D02*D03*
X7.68595Y25.35902D02*D03*
X32.92898Y25.84492D02*D03*
X32.22997Y25.84492D02*D03*
X31.63663Y25.83552D02*D03*
X30.96328Y25.83552D02*D03*
X30.25208Y25.83552D02*D03*
X29.54088Y25.83552D02*D03*
X28.82968Y25.83552D02*D03*
X28.11848Y25.83552D02*D03*
X27.40728Y25.83552D02*D03*
X26.80479Y25.83552D02*D03*
X25.83552Y25.69608D02*D03*
X24.8622Y25.69608D02*D03*
X24.38722Y26.05168D02*D03*
X23.91224Y25.69608D02*D03*
X22.93891Y25.69608D02*D03*
X21.94831Y25.69608D02*D03*
X20.97498Y25.69608D02*D03*
X20.5Y26.05168D02*D03*
X20.02502Y25.69608D02*D03*
X19.05169Y25.69608D02*D03*
X18.06109Y25.69608D02*D03*
X17.08776Y25.69608D02*D03*
X16.61278Y26.05168D02*D03*
X16.1378Y25.69608D02*D03*
X15.16448Y25.69608D02*D03*
X14.19521Y25.83552D02*D03*
X13.59272Y25.83552D02*D03*
X12.88152Y25.83552D02*D03*
X12.17032Y25.83552D02*D03*
X11.45912Y25.83552D02*D03*
X10.74792Y25.83552D02*D03*
X10.03672Y25.83552D02*D03*
X9.36337Y25.83552D02*D03*
X8.77003Y25.84492D02*D03*
X8.07102Y25.84492D02*D03*
X33.31405Y26.33082D02*D03*
X32.57059Y26.33082D02*D03*
X25.83552Y26.40728D02*D03*
X24.8622Y26.40728D02*D03*
X23.91224Y26.40728D02*D03*
X22.93891Y26.40728D02*D03*
X21.94831Y26.40728D02*D03*
X20.97498Y26.40728D02*D03*
X20.02502Y26.40728D02*D03*
X19.05169Y26.40728D02*D03*
X18.06109Y26.40728D02*D03*
X17.08776Y26.40728D02*D03*
X16.1378Y26.40728D02*D03*
X15.16448Y26.40728D02*D03*
X8.42941Y26.33082D02*D03*
X7.68595Y26.33082D02*D03*
X32.92898Y26.81673D02*D03*
X32.22997Y26.81673D02*D03*
X31.63663Y26.82612D02*D03*
X30.96328Y26.82612D02*D03*
X30.25208Y26.82612D02*D03*
X29.54088Y26.82612D02*D03*
X28.82968Y26.82612D02*D03*
X28.11848Y26.82612D02*D03*
X27.40728Y26.82612D02*D03*
X26.82612Y26.94601D02*D03*
X25.83552Y27.11848D02*D03*
X24.8622Y27.11848D02*D03*
X24.38722Y26.76288D02*D03*
X23.91224Y27.11848D02*D03*
X22.93891Y27.11848D02*D03*
X21.94831Y27.11848D02*D03*
X20.97498Y27.11848D02*D03*
X20.5Y26.76288D02*D03*
X20.02502Y27.11848D02*D03*
X19.05169Y27.11848D02*D03*
X18.06109Y27.11848D02*D03*
X17.08776Y27.11848D02*D03*
X16.61278Y26.76288D02*D03*
X16.1378Y27.11848D02*D03*
X15.16448Y27.11848D02*D03*
X14.17388Y26.94601D02*D03*
X13.59272Y26.82612D02*D03*
X12.88152Y26.82612D02*D03*
X12.17032Y26.82612D02*D03*
X11.45912Y26.82612D02*D03*
X10.74792Y26.82612D02*D03*
X10.03672Y26.82612D02*D03*
X9.36337Y26.82612D02*D03*
X8.77003Y26.81673D02*D03*
X8.07102Y26.81673D02*D03*
X33.31405Y27.30263D02*D03*
X32.57059Y27.30263D02*D03*
X27.25056Y27.4149D02*D03*
X24.38722Y27.47408D02*D03*
X20.5Y27.47408D02*D03*
X16.61278Y27.47408D02*D03*
X13.74944Y27.4149D02*D03*
X8.42941Y27.30263D02*D03*
X7.68595Y27.30263D02*D03*
X32.92898Y27.78853D02*D03*
X32.22997Y27.78853D02*D03*
X31.63714Y27.81672D02*D03*
X30.96328Y27.81672D02*D03*
X30.25208Y27.81672D02*D03*
X29.54088Y27.81672D02*D03*
X28.82968Y27.81672D02*D03*
X27.81672Y27.83958D02*D03*
X26.82612Y27.82968D02*D03*
X25.83552Y27.82968D02*D03*
X24.8622Y27.82968D02*D03*
X23.91224Y27.82968D02*D03*
X22.93891Y27.82968D02*D03*
X21.94831Y27.82968D02*D03*
X20.97498Y27.82968D02*D03*
X20.02502Y27.82968D02*D03*
X19.05169Y27.82968D02*D03*
X18.06109Y27.82968D02*D03*
X17.08776Y27.82968D02*D03*
X16.1378Y27.82968D02*D03*
X15.16448Y27.82968D02*D03*
X14.17388Y27.82968D02*D03*
X13.18328Y27.83958D02*D03*
X12.17032Y27.81672D02*D03*
X11.45912Y27.81672D02*D03*
X10.74792Y27.81672D02*D03*
X10.03672Y27.81672D02*D03*
X9.36286Y27.81672D02*D03*
X8.77003Y27.78853D02*D03*
X8.07102Y27.78853D02*D03*
X33.31405Y28.27443D02*D03*
X32.57059Y28.27443D02*D03*
X27.81672Y28.54088D02*D03*
X26.82612Y28.54088D02*D03*
X25.83552Y28.54088D02*D03*
X24.8622Y28.54088D02*D03*
X24.38722Y28.18528D02*D03*
X23.91224Y28.54088D02*D03*
X22.93891Y28.54088D02*D03*
X21.94831Y28.54088D02*D03*
X20.97498Y28.54088D02*D03*
X20.5Y28.18528D02*D03*
X20.02502Y28.54088D02*D03*
X19.05169Y28.54088D02*D03*
X18.06109Y28.54088D02*D03*
X17.08776Y28.54088D02*D03*
X16.61278Y28.18528D02*D03*
X16.1378Y28.54088D02*D03*
X15.16448Y28.54088D02*D03*
X14.17388Y28.54088D02*D03*
X13.18328Y28.54088D02*D03*
X8.42941Y28.27443D02*D03*
X7.68595Y28.27443D02*D03*
X32.42886Y28.85076D02*D03*
X31.75779Y28.80732D02*D03*
X31.04659Y28.80732D02*D03*
X30.33539Y28.80732D02*D03*
X29.62419Y28.80732D02*D03*
X28.80732Y28.67042D02*D03*
X24.38722Y28.89648D02*D03*
X20.5Y28.89648D02*D03*
X16.61278Y28.89648D02*D03*
X12.19268Y28.67042D02*D03*
X11.37581Y28.80732D02*D03*
X10.66461Y28.80732D02*D03*
X9.95341Y28.80732D02*D03*
X9.24221Y28.80732D02*D03*
X8.57114Y28.85076D02*D03*
X33.31405Y29.12051D02*D03*
X32.74636Y29.35215D02*D03*
X28.80732Y29.26376D02*D03*
X27.81672Y29.25208D02*D03*
X26.82612Y29.25208D02*D03*
X25.83552Y29.25208D02*D03*
X24.8622Y29.25208D02*D03*
X23.91224Y29.25208D02*D03*
X22.93891Y29.25208D02*D03*
X21.94831Y29.25208D02*D03*
X20.97498Y29.25208D02*D03*
X20.02502Y29.25208D02*D03*
X19.05169Y29.25208D02*D03*
X18.06109Y29.25208D02*D03*
X17.08776Y29.25208D02*D03*
X16.1378Y29.25208D02*D03*
X15.16448Y29.25208D02*D03*
X14.17388Y29.25208D02*D03*
X13.18328Y29.25208D02*D03*
X12.19268Y29.26376D02*D03*
X8.25364Y29.35215D02*D03*
X7.68595Y29.12051D02*D03*
X33.31405Y29.79361D02*D03*
X32.7207Y29.94499D02*D03*
X31.06513Y29.80173D02*D03*
X30.2122Y29.80173D02*D03*
X28.80732Y29.95718D02*D03*
X27.81672Y29.96328D02*D03*
X26.82612Y29.96328D02*D03*
X25.83552Y29.96328D02*D03*
X24.8622Y29.96328D02*D03*
X24.38722Y29.60768D02*D03*
X23.91224Y29.96328D02*D03*
X22.93891Y29.96328D02*D03*
X21.94831Y29.96328D02*D03*
X21.02502Y29.90435D02*D03*
X20.5Y29.60768D02*D03*
X19.97498Y29.90435D02*D03*
X19.05169Y29.96328D02*D03*
X18.06109Y29.96328D02*D03*
X17.08776Y29.96328D02*D03*
X16.61278Y29.60768D02*D03*
X16.1378Y29.96328D02*D03*
X15.16448Y29.96328D02*D03*
X14.17388Y29.96328D02*D03*
X13.18328Y29.96328D02*D03*
X12.19268Y29.95718D02*D03*
X10.7878Y29.80173D02*D03*
X9.93487Y29.80173D02*D03*
X8.2793Y29.94499D02*D03*
X7.68595Y29.79361D02*D03*
X33.31405Y30.49211D02*D03*
X32.72248Y30.53833D02*D03*
X32.14285Y30.07986D02*D03*
X29.82002Y30.247D02*D03*
X24.38722Y30.31888D02*D03*
X16.61278Y30.31888D02*D03*
X11.17998Y30.247D02*D03*
X8.85715Y30.07986D02*D03*
X8.27752Y30.53833D02*D03*
X7.68595Y30.49211D02*D03*
X32.73772Y31.13168D02*D03*
X31.66279Y30.66279D02*D03*
X30.61276Y30.73849D02*D03*
X28.80732Y30.66838D02*D03*
X27.81672Y30.63714D02*D03*
X26.82612Y30.63663D02*D03*
X25.83552Y30.63663D02*D03*
X24.88836Y30.63663D02*D03*
X23.88607Y30.63663D02*D03*
X22.93891Y30.63663D02*D03*
X21.94831Y30.63663D02*D03*
X20.96279Y30.49465D02*D03*
X20.5Y30.86599D02*D03*
X20.03721Y30.49465D02*D03*
X19.05169Y30.63663D02*D03*
X18.06109Y30.63663D02*D03*
X17.11393Y30.63663D02*D03*
X16.11164Y30.63663D02*D03*
X15.16448Y30.63663D02*D03*
X14.17388Y30.63663D02*D03*
X13.18328Y30.63714D02*D03*
X12.19268Y30.66838D02*D03*
X10.38724Y30.73849D02*D03*
X9.33721Y30.66279D02*D03*
X8.26228Y31.13168D02*D03*
X33.31405Y31.27316D02*D03*
X32.14438Y31.14438D02*D03*
X31.07986Y31.14285D02*D03*
X30.05319Y31.20915D02*D03*
X29.19798Y31.52817D02*D03*
X28.27443Y31.57059D02*D03*
X27.78853Y31.22998D02*D03*
X27.30263Y31.57059D02*D03*
X26.81673Y31.22998D02*D03*
X26.33082Y31.57059D02*D03*
X25.84492Y31.22998D02*D03*
X25.35902Y31.57059D02*D03*
X24.87312Y31.22998D02*D03*
X24.38722Y31.57059D02*D03*
X23.90131Y31.22998D02*D03*
X23.41541Y31.57059D02*D03*
X22.92951Y31.22998D02*D03*
X22.44361Y31.57059D02*D03*
X21.95771Y31.22998D02*D03*
X21.4718Y31.57059D02*D03*
X20.97981Y31.21524D02*D03*
X20.5Y31.57059D02*D03*
X20.02019Y31.21524D02*D03*
X19.5282Y31.57059D02*D03*
X19.04229Y31.22998D02*D03*
X18.55639Y31.57059D02*D03*
X18.07049Y31.22998D02*D03*
X17.58459Y31.57059D02*D03*
X17.09869Y31.22998D02*D03*
X16.61278Y31.57059D02*D03*
X16.12688Y31.22998D02*D03*
X15.64098Y31.57059D02*D03*
X15.15508Y31.22998D02*D03*
X14.66918Y31.57059D02*D03*
X14.18327Y31.22998D02*D03*
X13.69737Y31.57059D02*D03*
X13.21147Y31.22998D02*D03*
X12.72557Y31.57059D02*D03*
X11.80202Y31.52817D02*D03*
X10.94681Y31.20915D02*D03*
X9.92014Y31.14285D02*D03*
X8.85562Y31.14438D02*D03*
X7.68595Y31.27316D02*D03*
X33.31405Y31.88276D02*D03*
X32.72502Y31.72502D02*D03*
X32.13168Y31.73772D02*D03*
X31.53833Y31.72248D02*D03*
X30.94499Y31.7207D02*D03*
X30.35164Y31.72959D02*D03*
X29.7583Y31.72426D02*D03*
X28.76033Y31.92898D02*D03*
X27.78853Y31.92898D02*D03*
X26.81673Y31.92898D02*D03*
X25.84492Y31.92898D02*D03*
X24.87312Y31.92898D02*D03*
X23.90131Y31.92898D02*D03*
X22.92951Y31.92898D02*D03*
X21.95771Y31.92898D02*D03*
X20.9859Y31.92898D02*D03*
X20.0141Y31.92898D02*D03*
X19.04229Y31.92898D02*D03*
X18.07049Y31.92898D02*D03*
X17.09869Y31.92898D02*D03*
X16.12688Y31.92898D02*D03*
X15.15508Y31.92898D02*D03*
X14.18327Y31.92898D02*D03*
X13.21147Y31.92898D02*D03*
X12.23967Y31.92898D02*D03*
X11.2417Y31.72426D02*D03*
X10.64836Y31.72959D02*D03*
X10.05501Y31.7207D02*D03*
X9.46167Y31.72248D02*D03*
X8.86832Y31.73772D02*D03*
X8.27498Y31.72502D02*D03*
X7.68595Y31.88276D02*D03*
X32.88275Y32.31405D02*D03*
X32.27315Y32.31405D02*D03*
X31.4921Y32.31405D02*D03*
X30.7936Y32.31405D02*D03*
X30.1205Y32.31405D02*D03*
X29.24624Y32.31405D02*D03*
X28.27443Y32.31405D02*D03*
X27.30263Y32.31405D02*D03*
X26.33082Y32.31405D02*D03*
X25.35902Y32.31405D02*D03*
X24.38722Y32.31405D02*D03*
X23.41541Y32.31405D02*D03*
X22.44361Y32.31405D02*D03*
X21.4718Y32.31405D02*D03*
X20.5Y32.31405D02*D03*
X19.5282Y32.31405D02*D03*
X18.55639Y32.31405D02*D03*
X17.58459Y32.31405D02*D03*
X16.61278Y32.31405D02*D03*
X15.64098Y32.31405D02*D03*
X14.66918Y32.31405D02*D03*
X13.69737Y32.31405D02*D03*
X12.72557Y32.31405D02*D03*
X11.75376Y32.31405D02*D03*
X10.8795Y32.31405D02*D03*
X10.2064Y32.31405D02*D03*
X9.5079Y32.31405D02*D03*
X8.72685Y32.31405D02*D03*
X8.11725Y32.31405D02*D03*

%ADD12R,0.348X0.9144*%
D12*
X0Y0D02*D03*
X1.27Y0D02*D03*
X2.54Y0D02*D03*
X3.81Y0D02*D03*
X0Y5.3848D02*D03*
X1.27Y5.3848D02*D03*
X2.54Y5.3848D02*D03*
X3.81Y5.3848D02*D03*
%ADD13R,3.5052X2.9972*%
D13*
X1.905Y2.6924D02*D03*

M02*